<?xml version="1.0" encoding="UTF-8" standalone="no"?>
<svg
   xmlns:dc="http://purl.org/dc/elements/1.1/"
   xmlns:cc="http://creativecommons.org/ns#"
   xmlns:rdf="http://www.w3.org/1999/02/22-rdf-syntax-ns#"
   xmlns:svg="http://www.w3.org/2000/svg"
   xmlns="http://www.w3.org/2000/svg"
   width="178.11504mm"
   height="213.23198mm"
   viewBox="0 0 631.11627 755.54638"
   id="svg5496"
   version="1.1">
  <defs
     id="defs5498" />
  <metadata
     id="metadata5501">
    <rdf:RDF>
      <cc:Work
         rdf:about="">
        <dc:format>image/svg+xml</dc:format>
        <dc:type
           rdf:resource="http://purl.org/dc/dcmitype/StillImage" />
        <dc:title></dc:title>
      </cc:Work>
    </rdf:RDF>
  </metadata>
  <g
     id="layer1"
     transform="translate(-113.01327,-166.01759)">
    <ellipse
       style="display:inline;opacity:1;fill:#ffffff;fill-opacity:1;stroke:none;stroke-width:1;stroke-linecap:round;stroke-linejoin:round;stroke-miterlimit:4;stroke-dasharray:none;stroke-dashoffset:0;stroke-opacity:1"
       id="path12107"
       cx="391.1814"
       cy="361.48111"
       rx="36.099293"
       ry="30.226679" />
    <rect
       style="display:inline;opacity:1;fill:#ffffff;fill-opacity:1;stroke:none;stroke-width:1;stroke-linecap:round;stroke-linejoin:round;stroke-miterlimit:4;stroke-dasharray:none;stroke-dashoffset:0;stroke-opacity:1"
       id="rect12109"
       width="74.962166"
       height="137.14276"
       x="358.88196"
       y="467.36087" />
    <g
       style="display:inline"
       id="g6528"
       transform="matrix(3.2149067,0,0,3.2149067,-1323.9275,141.34763)">
      <ellipse
         id="path3628"
         style="fill:none;stroke:#000002;stroke-width:0.97100002;stroke-linecap:round;stroke-linejoin:round;stroke-miterlimit:4;stroke-dasharray:none;stroke-opacity:1"
         cx="534.71143"
         cy="64.625603"
         rx="18.966667"
         ry="17.841526" />
      <path
         id="path4398"
         d="m 528.80091,81.583791 c -20.37877,34.458629 -11.286,79.910389 2.37435,119.183899 -1.78679,-1.54155 -4.71488,0.21431 -7.07232,0.32147"
         style="fill:none;stroke:#000002;stroke-width:0.97100002;stroke-linecap:round;stroke-linejoin:round;stroke-miterlimit:4;stroke-dasharray:none;stroke-opacity:1" />
      <path
         id="path4400"
         d="m 530.87675,199.90636 c -22.38176,-45.98707 32.1106,-49.10814 17.33636,-2.67483"
         style="fill:none;stroke:#000002;stroke-width:0.97100002;stroke-linecap:round;stroke-linejoin:round;stroke-miterlimit:4;stroke-dasharray:none;stroke-opacity:1" />
      <path
         id="path4402"
         d="m 541.11126,81.425931 c 13.71622,34.598449 21.02535,85.747109 7.31335,115.128909 3.53717,-3.13499 6.18961,0.0291 7.18229,0.0337"
         style="fill:none;stroke:#000002;stroke-width:0.97100002;stroke-linecap:round;stroke-linejoin:round;stroke-miterlimit:4;stroke-dasharray:none;stroke-opacity:1" />
      <path
         id="path4427"
         d="m 541.56277,82.576771 c 10.51445,-7.83681 26.95495,-15.55936 36.64054,-18.08603"
         style="fill:none;stroke:#000002;stroke-width:0.97100002;stroke-linecap:round;stroke-linejoin:round;stroke-miterlimit:4;stroke-dasharray:none;stroke-opacity:1" />
      <path
         id="path4429"
         d="m 577.2842,64.740341 c -1.38057,-8.39792 -1.52594,-16.98779 2.10988,-23.35047"
         style="fill:none;stroke:#000002;stroke-width:0.97100002;stroke-linecap:round;stroke-linejoin:round;stroke-miterlimit:4;stroke-dasharray:none;stroke-opacity:1" />
      <path
         id="path4431"
         d="m 587.01498,45.438471 c -1.29197,-1.21598 -3.28294,-4.8333 -7.6209,-4.0486 3.49836,-3.9492 8.5621,-1.64786 10.24059,-1.42892 0.35765,2.18632 -1.75166,3.66255 -2.61969,5.47752 z"
         style="fill:none;stroke:#000002;stroke-width:0.97100002;stroke-linecap:round;stroke-linejoin:round;stroke-miterlimit:4;stroke-dasharray:none;stroke-opacity:1" />
      <path
         id="path4433"
         d="m 587.24354,45.011731 c 3.85195,1.29885 5.97111,-0.0517 8.58312,-0.76402"
         style="fill:none;stroke:#000002;stroke-width:0.97100002;stroke-linecap:round;stroke-linejoin:round;stroke-miterlimit:4;stroke-dasharray:none;stroke-opacity:1" />
      <path
         id="path4435"
         d="m 589.15836,43.533251 c 3.74405,1.64669 3.42091,1.17621 7.38276,-1.90523"
         style="fill:none;stroke:#000002;stroke-width:0.97100002;stroke-linecap:round;stroke-linejoin:round;stroke-miterlimit:4;stroke-dasharray:none;stroke-opacity:1" />
      <path
         id="path4437"
         d="m 590.34913,40.437251 c 4.28656,3.46078 2.71774,0.10538 6.66829,-0.23815"
         style="fill:none;stroke:#000002;stroke-width:0.97100002;stroke-linecap:round;stroke-linejoin:round;stroke-miterlimit:4;stroke-dasharray:none;stroke-opacity:1" />
      <path
         id="path4439"
         d="m 584.15714,38.770181 c 0.34489,-1.40357 3.34966,-2.12596 6.90645,-3.09599"
         style="fill:none;stroke:#000002;stroke-width:0.97100002;stroke-linecap:round;stroke-linejoin:round;stroke-miterlimit:4;stroke-dasharray:none;stroke-opacity:1" />
      <g
         transform="matrix(0.24036151,0.97068344,-0.97068344,0.24036151,472.71119,-244.65538)"
         id="g4465">
        <path
           style="fill:none;stroke:#000002;stroke-width:0.97100002;stroke-linecap:round;stroke-linejoin:round;stroke-miterlimit:4;stroke-dasharray:none;stroke-opacity:1"
           d="m 299.35871,31.426306 c -2.21324,-0.09222 -5.75665,-1.342327 -8.33536,1.428919 -2.81017,-3.681751 0.18694,-5.834338 0.95261,-7.620905 3.31649,1.079084 5.11284,3.788547 7.38275,6.191986 z"
           id="path4441" />
        <path
           style="fill:none;stroke:#000002;stroke-width:0.97100002;stroke-linecap:round;stroke-linejoin:round;stroke-miterlimit:4;stroke-dasharray:none;stroke-opacity:1"
           d="m 292.21411,25.23432 c -2.02968,-1.565626 -3.03615,-0.774714 -0.71446,-6.191987"
           id="path4443" />
        <path
           style="fill:none;stroke:#000002;stroke-width:0.97100002;stroke-linecap:round;stroke-linejoin:round;stroke-miterlimit:4;stroke-dasharray:none;stroke-opacity:1"
           d="m 291.2615,26.425086 c -5.06596,-3.146518 -3.34219,-0.288062 -1.66707,-6.430139"
           id="path4445" />
        <path
           style="fill:none;stroke:#000002;stroke-width:0.97100002;stroke-linecap:round;stroke-linejoin:round;stroke-miterlimit:4;stroke-dasharray:none;stroke-opacity:1"
           d="m 289.59443,27.854006 c -1.76822,-0.309655 -2.90995,-0.646655 -4.28676,-0.952613 0.50574,-1.693556 0.45861,-3.057414 0.71446,-4.763067"
           id="path4447" />
        <path
           style="fill:none;stroke:#000002;stroke-width:0.97100002;stroke-linecap:round;stroke-linejoin:round;stroke-miterlimit:4;stroke-dasharray:none;stroke-opacity:1"
           d="m 288.87997,29.521079 c -2.8595,-0.463077 -4.20094,1.320006 -6.43014,2.381533"
           id="path4449" />
        <path
           style="fill:none;stroke:#000002;stroke-width:0.97100002;stroke-linecap:round;stroke-linejoin:round;stroke-miterlimit:4;stroke-dasharray:none;stroke-opacity:1"
           d="m 296.26272,27.854006 c 2.87647,-1.699406 0.47907,-3.992289 0.71446,-5.953833"
           id="path4451" />
      </g>
      <ellipse
         id="path4453"
         style="fill:none;stroke:#000002;stroke-width:0.97100002;stroke-linecap:round;stroke-linejoin:round;stroke-miterlimit:4;stroke-dasharray:none;stroke-opacity:1"
         cx="527.35754"
         cy="67.705803"
         rx="2.2624564"
         ry="5.5966029" />
      <ellipse
         id="path4455"
         style="fill:none;stroke:#000002;stroke-width:0.97100002;stroke-linecap:round;stroke-linejoin:round;stroke-miterlimit:4;stroke-dasharray:none;stroke-opacity:1"
         cx="538.31262"
         cy="68.65844"
         rx="2.0243032"
         ry="5.8347559" />
      <ellipse
         id="path4457"
         style="fill:none;stroke:#000002;stroke-width:0.97100002;stroke-linecap:round;stroke-linejoin:round;stroke-miterlimit:4;stroke-dasharray:none;stroke-opacity:1"
         cx="539.38434"
         cy="96.403282"
         rx="2.8578398"
         ry="5.2393727" />
      <ellipse
         id="path4459"
         style="fill:none;stroke:#000002;stroke-width:0.80000001;stroke-linecap:round;stroke-linejoin:round;stroke-miterlimit:4;stroke-dasharray:none;stroke-opacity:1"
         cx="540.17352"
         cy="96.601128"
         rx="1.8160113"
         ry="4.2792268" />
      <path
         id="path4461"
         d="m 527.02789,80.942451 c -6.8417,-2.61198 -22.42311,-0.25515 -29.81775,-0.87137"
         style="fill:none;stroke:#000002;stroke-width:0.80000001;stroke-linecap:round;stroke-linejoin:round;stroke-miterlimit:4;stroke-dasharray:none;stroke-opacity:1" />
      <path
         id="path4473"
         d="m 515.08155,52.109841 c -9.57656,6.77165 -14.72304,18.06636 -17.87141,27.96124"
         style="fill:none;stroke:#000002;stroke-width:0.80000001;stroke-linecap:round;stroke-linejoin:round;stroke-miterlimit:4;stroke-dasharray:none;stroke-opacity:1" />
      <path
         id="path4482"
         d="m 526.38239,46.096621 0,-2.71281 11.04015,0 0,-2.87239 -10.44337,-0.15957 0,-3.19154 9.24984,-0.15958"
         style="fill:none;stroke:#ffde17;stroke-width:1.64894128;stroke-linecap:round;stroke-linejoin:round;stroke-miterlimit:4;stroke-dasharray:none;stroke-opacity:1" />
      <path
         id="path4488"
         d="m 536.22901,36.681571 -0.29838,-2.23407 -8.65309,-0.31916 -0.29838,-3.03196 9.24985,-0.31916 0.29839,-2.23407 -10.44338,-0.47873 -0.0362,-8.5331"
         style="fill:none;stroke:#ffde17;stroke-width:1.64894128;stroke-linecap:round;stroke-linejoin:round;stroke-miterlimit:4;stroke-dasharray:none;stroke-opacity:1" />
      <path
         id="path4573"
         d="m 551.3594,184.46375 c 0.0921,-1.2642 0.0191,-3.64509 -0.16235,-5.29086 -0.79935,-7.25089 -3.709,-12.19352 -8.60798,-14.62242 -2.03878,-1.01082 -2.27657,-1.061 -5.02808,-1.061 -2.6519,0 -3.04647,0.075 -4.82483,0.91745 -2.43006,1.15113 -4.36342,3.07165 -5.72897,5.69089 -1.10188,2.1135 -1.95947,4.92957 -1.95947,6.43431 0,1.98502 -0.53097,0.6172 -1.80648,-4.65358 -3.67003,-15.16567 -5.25347,-26.29348 -5.56835,-39.13218 -0.33225,-13.54712 1.16587,-24.663 4.78404,-35.497119 2.32477,-6.9612 6.22913,-15.13622 7.07415,-14.81195 0.22455,0.0862 1.50723,0.29323 2.85039,0.46014 2.27388,0.28256 5.01028,0.11741 7.63101,-0.46055 0.72218,-0.15927 0.78216,-0.055 2.19345,3.81127 11.83451,32.421409 15.93556,69.992049 10.39912,95.268499 -1.12792,5.14946 -1.46415,5.94496 -1.24565,2.9471 z m -22.13249,-44.23404 c 0.99763,-0.99763 0.99225,-2.94742 -0.0107,-3.88967 -1.61118,-1.51362 -3.88115,-0.32159 -3.88115,2.03812 0,1.44839 0.99645,2.55679 2.29855,2.55679 0.55981,0 1.14877,-0.26069 1.59332,-0.70524 z m 11.78007,-0.57464 c 0.99763,-0.99763 0.99225,-2.94742 -0.0107,-3.88967 -1.61118,-1.51362 -3.88114,-0.32159 -3.88114,2.03812 0,1.44839 0.99644,2.55679 2.29855,2.55679 0.5598,0 1.14876,-0.26069 1.59331,-0.70524 z m -12.35471,-10.6308 c 0.99763,-0.99763 0.99225,-2.94742 -0.0107,-3.88966 -1.61118,-1.51363 -3.88115,-0.3216 -3.88115,2.03811 0,1.44839 0.99645,2.55679 2.29856,2.55679 0.5598,0 1.14876,-0.26069 1.59331,-0.70524 l 0,0 z m 12.64203,-0.28732 c 0.99763,-0.99763 0.99225,-2.94742 -0.0107,-3.88966 -1.61118,-1.51363 -3.88115,-0.3216 -3.88115,2.03811 0,1.44839 0.99645,2.55679 2.29855,2.55679 0.55981,0 1.14877,-0.26069 1.59332,-0.70524 z m -12.64203,-11.78007 c 0.99763,-0.99763 0.99225,-2.94742 -0.0107,-3.88966 -1.61118,-1.51363 -3.88115,-0.3216 -3.88115,2.03811 0,1.44839 0.99645,2.55679 2.29856,2.55679 0.5598,0 1.14876,-0.26069 1.59331,-0.70524 l 0,0 z m 12.35471,-0.28732 c 0.99763,-0.99763 0.99225,-2.94742 -0.0107,-3.88966 -1.61118,-1.51362 -3.88114,-0.3216 -3.88114,2.03811 0,1.44839 0.99644,2.55679 2.29855,2.55679 0.5598,0 1.14876,-0.26069 1.59331,-0.70524 l 0,0 z m -11.7213,-10.67069 c 0.88902,-0.99496 0.84994,-2.41678 -0.0974,-3.5426 -1.90934,-2.26912 -5.11594,0.41891 -3.71999,3.11838 0.83004,1.60513 2.58766,1.80046 3.81736,0.42422 z m 11.43398,0.32722 c 0.8508,-0.8508 0.9793,-2.82549 0.23722,-3.64547 -0.43664,-0.48248 -0.40935,-0.58396 0.40702,-1.51376 1.47513,-1.680079 1.90331,-5.693559 0.86751,-8.131529 -1.01043,-2.37827 -3.26395,-3.1694 -4.67893,-1.64262 -2.01007,2.1689 -2.10355,7.1488 -0.18478,9.843469 0.54253,0.7619 0.54263,0.78679 0.006,1.44944 -1.31426,1.62304 -0.21623,4.34571 1.7526,4.34571 0.5598,0 1.14876,-0.26069 1.59331,-0.70524 z"
         style="fill:#0f7391;fill-opacity:1;fill-rule:evenodd;stroke:#9a9b9a;stroke-width:0.40224636;stroke-linecap:round;stroke-linejoin:round;stroke-miterlimit:4;stroke-dasharray:none;stroke-opacity:1" />
      <path
         id="path4575"
         d="m 529.98288,81.181351 c -6.66695,-1.80006 -11.5213,-6.53058 -13.11753,-12.78294 -1.34661,-5.27459 0.38824,-11.28763 4.42713,-15.34461 3.62737,-3.6436 7.31604,-5.22174 12.68618,-5.4276 3.96436,-0.15196 5.90412,0.2489 9.31381,1.92474 3.98225,1.95726 7.37851,5.69783 8.80088,9.69309 0.75125,2.11018 1.02537,6.50303 0.54899,8.79774 -1.17352,5.65284 -6.16131,10.97448 -12.0794,12.88795 -2.75298,0.89011 -7.77309,1.0095 -10.58006,0.25163 z m 8.98855,-6.22151 c 0.25669,-0.0985 0.75212,-0.71265 1.10094,-1.36477 0.56077,-1.04832 0.63423,-1.61832 0.63423,-4.92081 0,-3.45475 -0.0542,-3.8322 -0.72203,-5.02808 -0.86817,-1.55463 -1.88896,-1.8482 -2.84781,-0.81899 -0.93279,1.00123 -1.3148,2.70344 -1.31221,5.84707 0.002,3.00357 0.34426,4.47808 1.32778,5.72843 0.5912,0.75158 0.99228,0.87443 1.8191,0.55715 l 0,0 z m -10.33583,-1.65875 c 1.08776,-1.08776 1.68348,-3.61015 1.50986,-6.39308 -0.24146,-3.87024 -1.44403,-5.67568 -3.44565,-5.17301 -1.35249,0.33966 -2.39288,3.68409 -2.14904,6.90827 0.32552,4.30408 2.24726,6.49539 4.08483,4.65782 l 0,0 z"
         style="fill:#0f7391;fill-opacity:1;fill-rule:evenodd;stroke:#9a9b9a;stroke-width:0.40224636;stroke-linecap:round;stroke-linejoin:round;stroke-miterlimit:4;stroke-dasharray:none;stroke-opacity:1" />
      <path
         id="path4577"
         d="m 539.2023,101.11172 c -0.71631,-0.14202 -1.39525,-0.97691 -1.79463,-2.206839 -0.42443,-1.30708 -0.47967,-3.08538 -0.13997,-4.5057 0.41713,-1.74406 1.40526,-2.89035 2.32397,-2.69592 0.34157,0.0723 0.5718,0.23148 0.33625,0.23251 -0.1594,6.9e-4 -0.50129,0.19001 -0.72468,0.40128 -0.77574,0.73367 -1.24721,2.3365 -1.24806,4.24301 -8.7e-4,1.95028 0.47472,3.567029 1.2674,4.308499 0.10867,0.10164 0.2206,0.18508 0.24872,0.18541 0.0364,4.4e-4 0.034,0.0117 -0.008,0.0389 -0.0326,0.0211 -0.0682,0.0367 -0.0791,0.0346 -0.0109,-0.002 -0.0926,-0.0182 -0.18169,-0.0358 z"
         style="fill:#0f5c73;fill-opacity:1;fill-rule:evenodd;stroke:#9a9b9a;stroke-width:0.05538175;stroke-linecap:round;stroke-linejoin:round;stroke-miterlimit:4;stroke-dasharray:none;stroke-opacity:1" />
      <ellipse
         id="path4579"
         style="fill:none;stroke:#000000;stroke-width:1.39999998;stroke-linecap:round;stroke-linejoin:round;stroke-miterlimit:4;stroke-dasharray:none;stroke-opacity:1"
         cx="527.46436"
         cy="71.972282"
         rx="0.43293479"
         ry="0.50509059" />
      <ellipse
         id="path4579-2"
         style="fill:none;stroke:#000000;stroke-width:1.39999998;stroke-linecap:round;stroke-linejoin:round;stroke-miterlimit:4;stroke-dasharray:none;stroke-opacity:1"
         cx="538.43207"
         cy="72.910301"
         rx="0.43293479"
         ry="0.50509059" />
      <path
         id="path4625"
         d="m 527.35218,103.9092 23.1396,-14.742169 21.46011,0"
         style="fill:none;stroke:#ff0000;stroke-width:1.39999998;stroke-linecap:round;stroke-linejoin:round;stroke-miterlimit:4;stroke-dasharray:none;stroke-opacity:1" />
      <path
         id="path4627"
         d="m 539.2952,104.46903 13.99573,-0.93305"
         style="fill:none;stroke:#ff0000;stroke-width:1.39999998;stroke-linecap:round;stroke-linejoin:round;stroke-miterlimit:4;stroke-dasharray:none;stroke-opacity:1" />
      <path
         id="path4629"
         d="m 552.93175,103.55992 3.15832,11.35924 7.651,0.18661 -0.55983,-12.31623 7.83761,0"
         style="fill:none;stroke:#ff0000;stroke-width:1.39999998;stroke-linecap:round;stroke-linejoin:round;stroke-miterlimit:4;stroke-dasharray:none;stroke-opacity:1" />
      <path
         id="path4631"
         d="m 527.54011,114.83938 30.41606,-9.99713 2.61254,19.96723 8.58404,0"
         style="fill:none;stroke:#ff0000;stroke-width:1.39999998;stroke-linecap:round;stroke-linejoin:round;stroke-miterlimit:4;stroke-dasharray:none;stroke-opacity:1" />
      <path
         id="path4633"
         d="m 539.10859,115.10577 17.72792,15.302 12.31625,0.18661"
         style="fill:none;stroke:#ff0000;stroke-width:1.39999998;stroke-linecap:round;stroke-linejoin:round;stroke-miterlimit:4;stroke-dasharray:none;stroke-opacity:1" />
      <path
         id="path4635"
         d="m 526.79235,126.86218 29.29772,-5.22507 -0.93304,-25.378909 16.42165,-0.18661"
         style="fill:none;stroke:#ff0000;stroke-width:1.39999998;stroke-linecap:round;stroke-linejoin:round;stroke-miterlimit:4;stroke-dasharray:none;stroke-opacity:1" />
      <path
         id="path4637"
         d="m 539.10859,127.2354 19.59402,9.70371 10.82337,0.18661"
         style="fill:none;stroke:#ff0000;stroke-width:1.39999998;stroke-linecap:round;stroke-linejoin:round;stroke-miterlimit:4;stroke-dasharray:none;stroke-opacity:1" />
      <path
         id="path4639"
         d="m 527.35218,138.24537 24.63248,-44.599709 7.651,-0.55983 0.37322,50.757839 8.21082,0"
         style="fill:none;stroke:#ff0000;stroke-width:1.39999998;stroke-linecap:round;stroke-linejoin:round;stroke-miterlimit:4;stroke-dasharray:none;stroke-opacity:1" />
      <path
         id="path4641"
         d="m 538.92198,137.31233 22.76639,-17.91453 8.58404,-0.18661"
         style="fill:none;stroke:#ff0000;stroke-width:1.39999998;stroke-linecap:round;stroke-linejoin:round;stroke-miterlimit:4;stroke-dasharray:none;stroke-opacity:1" />
      <g
         style="font-style:normal;font-variant:normal;font-weight:normal;font-stretch:normal;font-size:6px;line-height:125%;font-family:Sans;-inkscape-font-specification:Sans;text-align:center;letter-spacing:0px;word-spacing:0px;writing-mode:lr-tb;text-anchor:middle;fill:#efefef;fill-opacity:1;stroke:none"
         id="text4643">
        <path
           d="m 575.93658,89.106285 -0.85253,0 0,1.740234 -0.53907,0 0,-4.265625 1.25098,0 q 0.29883,0.0059 0.5625,0.08496 0.26367,0.0791 0.45996,0.237305 0.19922,0.158203 0.31055,0.398438 0.11426,0.237304 0.11426,0.55957 0,0.208008 -0.0615,0.380859 -0.0586,0.172852 -0.16406,0.313477 -0.10547,0.140625 -0.25195,0.249023 -0.14649,0.108399 -0.32227,0.184571 l 0.90527,1.822265 -0.003,0.03516 -0.57128,0 -0.8379,-1.740234 z m -0.85253,-0.445312 0.72656,0 q 0.18164,-0.0029 0.34277,-0.05566 0.16113,-0.05567 0.28125,-0.158204 0.12305,-0.102539 0.19336,-0.249023 0.0703,-0.149414 0.0703,-0.342773 0,-0.205079 -0.0674,-0.357422 -0.0674,-0.155274 -0.1875,-0.257813 -0.12012,-0.105469 -0.28711,-0.158203 -0.16406,-0.05273 -0.36035,-0.05566 l -0.71191,0 0,1.634766 z"
           style="font-style:normal;font-variant:normal;font-weight:normal;font-stretch:normal;font-family:'Roboto Mono';-inkscape-font-specification:'Roboto Mono';fill:#efefef;fill-opacity:1"
           id="path6379" />
        <path
           d="m 579.44342,88.253746 0.91992,-1.672852 0.63867,0 -1.23925,2.115235 1.26855,2.15039 -0.63281,0 -0.94336,-1.705078 -0.94629,1.705078 -0.6416,0 1.27148,-2.15039 -1.23925,-2.115235 0.63574,0 0.9082,1.672852 z"
           style="font-style:normal;font-variant:normal;font-weight:normal;font-stretch:normal;font-family:'Roboto Mono';-inkscape-font-specification:'Roboto Mono';fill:#efefef;fill-opacity:1"
           id="path6381" />
      </g>
      <g
         style="font-style:normal;font-variant:normal;font-weight:normal;font-stretch:normal;font-size:6px;line-height:125%;font-family:Sans;-inkscape-font-specification:Sans;text-align:center;letter-spacing:0px;word-spacing:0px;writing-mode:lr-tb;text-anchor:middle;fill:#efefef;fill-opacity:1;stroke:none"
         id="text4647">
        <path
           d="m 576.12408,104.15582 1.00782,-3.39258 0.57715,0 -1.34473,4.26562 -0.47168,0 -1.34766,-4.26562 0.58008,0 0.99902,3.39258 z"
           style="font-style:normal;font-variant:normal;font-weight:normal;font-stretch:normal;font-family:'Roboto Mono';-inkscape-font-specification:'Roboto Mono';fill:#efefef;fill-opacity:1"
           id="path6372" />
        <path
           d="m 581.20709,103.74566 q -0.0381,0.2959 -0.15234,0.54492 -0.11426,0.24609 -0.29883,0.42481 -0.18164,0.17578 -0.43359,0.27539 -0.24903,0.0967 -0.55664,0.0967 -0.26368,0 -0.48047,-0.0732 -0.21387,-0.0762 -0.38379,-0.208 -0.16699,-0.13184 -0.29004,-0.31055 -0.12012,-0.17871 -0.20215,-0.38965 -0.0791,-0.21094 -0.12012,-0.44238 -0.0381,-0.23145 -0.041,-0.46875 l 0,-0.59473 q 0.003,-0.2373 0.041,-0.46875 0.041,-0.23144 0.12012,-0.44238 0.082,-0.21094 0.20215,-0.38965 0.12305,-0.18164 0.29004,-0.31348 0.16992,-0.13183 0.38379,-0.20507 0.21386,-0.0762 0.48047,-0.0762 0.31933,0 0.57129,0.0996 0.25195,0.0967 0.43359,0.27832 0.18164,0.17871 0.29004,0.43067 0.11133,0.25195 0.14648,0.55664 l -0.54199,0 q -0.0264,-0.19336 -0.0908,-0.36035 -0.0645,-0.167 -0.17285,-0.29297 -0.1084,-0.12598 -0.2666,-0.19629 -0.15528,-0.0732 -0.36914,-0.0732 -0.19336,0 -0.34278,0.0644 -0.14648,0.0615 -0.25488,0.16992 -0.10547,0.1084 -0.17871,0.25195 -0.0703,0.14356 -0.11426,0.30469 -0.0439,0.16113 -0.0644,0.33106 -0.0176,0.16699 -0.0176,0.32519 l 0,0.60059 q 0,0.1582 0.0176,0.32812 0.0205,0.16699 0.0644,0.33106 0.0439,0.16113 0.11426,0.30468 0.0703,0.14356 0.17871,0.25489 0.1084,0.1084 0.25488,0.17285 0.14649,0.0615 0.34278,0.0615 0.21386,0 0.36914,-0.0674 0.1582,-0.0674 0.2666,-0.1875 0.1084,-0.12305 0.17285,-0.28711 0.0644,-0.16699 0.0908,-0.36035 l 0.54199,0 z"
           style="font-style:normal;font-variant:normal;font-weight:normal;font-stretch:normal;font-family:'Roboto Mono';-inkscape-font-specification:'Roboto Mono';fill:#efefef;fill-opacity:1"
           id="path6374" />
        <path
           d="m 584.80475,103.74566 q -0.0381,0.2959 -0.15235,0.54492 -0.11425,0.24609 -0.29882,0.42481 -0.18164,0.17578 -0.4336,0.27539 -0.24902,0.0967 -0.55664,0.0967 -0.26367,0 -0.48047,-0.0732 -0.21386,-0.0762 -0.38379,-0.208 -0.16699,-0.13184 -0.29003,-0.31055 -0.12012,-0.17871 -0.20215,-0.38965 -0.0791,-0.21094 -0.12012,-0.44238 -0.0381,-0.23145 -0.041,-0.46875 l 0,-0.59473 q 0.003,-0.2373 0.041,-0.46875 0.041,-0.23144 0.12012,-0.44238 0.082,-0.21094 0.20215,-0.38965 0.12304,-0.18164 0.29003,-0.31348 0.16993,-0.13183 0.38379,-0.20507 0.21387,-0.0762 0.48047,-0.0762 0.31934,0 0.57129,0.0996 0.25195,0.0967 0.4336,0.27832 0.18164,0.17871 0.29003,0.43067 0.11133,0.25195 0.14649,0.55664 l -0.54199,0 q -0.0264,-0.19336 -0.0908,-0.36035 -0.0645,-0.167 -0.17286,-0.29297 -0.10839,-0.12598 -0.2666,-0.19629 -0.15527,-0.0732 -0.36914,-0.0732 -0.19336,0 -0.34277,0.0644 -0.14649,0.0615 -0.25488,0.16992 -0.10547,0.1084 -0.17871,0.25195 -0.0703,0.14356 -0.11426,0.30469 -0.0439,0.16113 -0.0645,0.33106 -0.0176,0.16699 -0.0176,0.32519 l 0,0.60059 q 0,0.1582 0.0176,0.32812 0.0205,0.16699 0.0645,0.33106 0.0439,0.16113 0.11426,0.30468 0.0703,0.14356 0.17871,0.25489 0.10839,0.1084 0.25488,0.17285 0.14648,0.0615 0.34277,0.0615 0.21387,0 0.36914,-0.0674 0.15821,-0.0674 0.2666,-0.1875 0.1084,-0.12305 0.17286,-0.28711 0.0645,-0.16699 0.0908,-0.36035 l 0.54199,0 z"
           style="font-style:normal;font-variant:normal;font-weight:normal;font-stretch:normal;font-family:'Roboto Mono';-inkscape-font-specification:'Roboto Mono';fill:#efefef;fill-opacity:1"
           id="path6376" />
      </g>
      <g
         style="font-style:normal;font-variant:normal;font-weight:normal;font-stretch:normal;font-size:6px;line-height:125%;font-family:Sans;-inkscape-font-specification:Sans;text-align:center;letter-spacing:0px;word-spacing:0px;writing-mode:lr-tb;text-anchor:middle;fill:#efefef;fill-opacity:1;stroke:none"
         id="text4651">
        <path
           d="m 577.52155,126.86245 q -0.26954,0.31641 -0.61817,0.46875 -0.34863,0.15234 -0.76465,0.14941 -0.26367,-0.003 -0.48633,-0.0791 -0.21972,-0.0791 -0.3955,-0.21387 -0.17578,-0.13769 -0.30762,-0.32226 -0.13184,-0.18457 -0.22266,-0.39844 -0.0879,-0.2168 -0.13476,-0.45117 -0.0439,-0.2373 -0.0469,-0.47754 l 0,-0.49512 q 0.003,-0.2373 0.041,-0.47168 0.041,-0.2373 0.12305,-0.4541 0.082,-0.21679 0.20507,-0.40136 0.12305,-0.1875 0.29297,-0.32227 0.17285,-0.1377 0.38965,-0.2168 0.2168,-0.0791 0.48633,-0.0791 0.29883,0 0.55078,0.0937 0.25195,0.0908 0.43945,0.26367 0.1875,0.16992 0.30176,0.41309 0.11426,0.24023 0.14063,0.53906 l -0.53614,0 q -0.0322,-0.18457 -0.0996,-0.33984 -0.0674,-0.15821 -0.17871,-0.26953 -0.1084,-0.11133 -0.26074,-0.17286 -0.15234,-0.0645 -0.35449,-0.0645 -0.19336,0 -0.34277,0.0674 -0.14942,0.0645 -0.26075,0.17579 -0.11133,0.11132 -0.18457,0.26074 -0.0732,0.14648 -0.12011,0.31054 -0.0469,0.16407 -0.0674,0.33399 -0.0205,0.16992 -0.0205,0.32812 l 0,0.50098 q 0.003,0.16113 0.0264,0.33399 0.0264,0.16992 0.0791,0.33398 0.0527,0.16406 0.13477,0.31055 0.082,0.14648 0.19629,0.25781 0.11719,0.11133 0.26953,0.17871 0.15234,0.0644 0.3457,0.0674 0.11133,0.003 0.23145,-0.009 0.12304,-0.0117 0.2373,-0.0469 0.11426,-0.0352 0.21387,-0.0937 0.0996,-0.0615 0.16699,-0.1582 l 0.006,-0.95801 -0.86719,0 0,-0.45703 1.38282,0 0.009,1.56445 z"
           style="font-style:normal;font-variant:normal;font-weight:normal;font-stretch:normal;font-family:'Roboto Mono';-inkscape-font-specification:'Roboto Mono';fill:#efefef;fill-opacity:1"
           id="path6361" />
        <path
           d="m 578.95123,125.71108 0,1.71094 -0.54199,0 0,-4.26563 1.38281,0 q 0.28711,0.006 0.542,0.0908 0.25781,0.085 0.45117,0.24609 0.19336,0.16113 0.30468,0.39844 0.11426,0.2373 0.11426,0.54492 0,0.30762 -0.11426,0.54492 -0.11132,0.23438 -0.30468,0.39551 -0.19336,0.16113 -0.45117,0.24609 -0.25489,0.085 -0.542,0.0879 l -0.84082,0 z m 0,-0.44531 0.84082,0 q 0.1875,-0.003 0.34571,-0.0586 0.1582,-0.0586 0.27539,-0.16407 0.11718,-0.10547 0.18164,-0.25488 0.0674,-0.15234 0.0674,-0.3457 0,-0.19336 -0.0674,-0.34864 -0.0645,-0.15527 -0.18164,-0.26367 -0.11426,-0.1084 -0.27539,-0.16699 -0.15821,-0.0586 -0.34571,-0.0615 l -0.84082,0 0,1.66406 z"
           style="font-style:normal;font-variant:normal;font-weight:normal;font-stretch:normal;font-family:'Roboto Mono';-inkscape-font-specification:'Roboto Mono';fill:#efefef;fill-opacity:1"
           id="path6363" />
        <path
           d="m 581.95709,123.15639 2.57813,0 0,0.47168 -1.02246,0 0,3.3252 1.02246,0 0,0.46875 -2.57813,0 0,-0.46875 0.99903,0 0,-3.3252 -0.99903,0 0,-0.47168 z"
           style="font-style:normal;font-variant:normal;font-weight:normal;font-stretch:normal;font-family:'Roboto Mono';-inkscape-font-specification:'Roboto Mono';fill:#efefef;fill-opacity:1"
           id="path6365" />
        <path
           d="m 588.32916,125.5353 q -0.003,0.22852 -0.041,0.46289 -0.0352,0.23145 -0.11133,0.44824 -0.0762,0.2168 -0.19629,0.4043 -0.11719,0.1875 -0.28125,0.32813 -0.16406,0.14062 -0.37793,0.22265 -0.21094,0.0791 -0.47461,0.0791 -0.26367,0 -0.47754,-0.0791 -0.21094,-0.082 -0.375,-0.22265 -0.16406,-0.14063 -0.28418,-0.32813 -0.12012,-0.19043 -0.19922,-0.40723 -0.0762,-0.21679 -0.11425,-0.44824 -0.0381,-0.23144 -0.041,-0.45996 l 0,-0.48633 q 0.003,-0.22851 0.0381,-0.45996 0.0381,-0.23437 0.11425,-0.45117 0.0791,-0.2168 0.19629,-0.4043 0.12012,-0.19043 0.28418,-0.33105 0.16406,-0.14356 0.375,-0.22266 0.21387,-0.082 0.47754,-0.082 0.26367,0 0.47754,0.082 0.21387,0.0791 0.37793,0.21973 0.16406,0.14062 0.28125,0.33105 0.12012,0.1875 0.19629,0.4043 0.0791,0.2168 0.11426,0.45117 0.0381,0.23438 0.041,0.46289 l 0,0.48633 z m -0.53613,-0.49219 q -0.003,-0.15234 -0.0205,-0.3164 -0.0176,-0.16699 -0.0615,-0.32813 -0.041,-0.16406 -0.11133,-0.31054 -0.0703,-0.14942 -0.17578,-0.26075 -0.10547,-0.11425 -0.24902,-0.17871 -0.14356,-0.0674 -0.33399,-0.0674 -0.1875,0 -0.33105,0.0674 -0.14356,0.0674 -0.24903,0.18164 -0.10547,0.11133 -0.17578,0.26075 -0.0703,0.14648 -0.11426,0.31054 -0.041,0.16113 -0.0615,0.32813 -0.0176,0.16406 -0.0205,0.31347 l 0,0.49219 q 0.003,0.14942 0.0205,0.31641 0.0205,0.16699 0.0645,0.33105 0.0439,0.16113 0.11426,0.31055 0.0703,0.14941 0.17578,0.26367 0.10547,0.11133 0.24903,0.17871 0.14355,0.0674 0.33398,0.0674 0.19043,0 0.33399,-0.0674 0.14648,-0.0674 0.24902,-0.17871 0.10547,-0.11426 0.17285,-0.26074 0.0703,-0.14942 0.11133,-0.31055 0.0439,-0.16406 0.0586,-0.33105 0.0176,-0.167 0.0205,-0.31934 l 0,-0.49219 z"
           style="font-style:normal;font-variant:normal;font-weight:normal;font-stretch:normal;font-family:'Roboto Mono';-inkscape-font-specification:'Roboto Mono';fill:#efefef;fill-opacity:1"
           id="path6367" />
        <path
           d="m 595.4278,125.79018 q 0,0.40723 -0.0937,0.72364 -0.0937,0.31347 -0.26954,0.53027 -0.17578,0.21387 -0.43066,0.3252 -0.25488,0.11132 -0.58301,0.11132 -0.32519,0 -0.58301,-0.11132 -0.25488,-0.11133 -0.43359,-0.3252 -0.17871,-0.2168 -0.27539,-0.53027 -0.0937,-0.31641 -0.0937,-0.72364 l 0,-0.99902 q 0,-0.40723 0.0937,-0.7207 0.0937,-0.31641 0.26953,-0.53321 0.17871,-0.21679 0.4336,-0.32812 0.25781,-0.11426 0.583,-0.11426 0.32813,0 0.58301,0.11426 0.25781,0.11133 0.43359,0.32812 0.17872,0.2168 0.27247,0.53321 0.0937,0.31347 0.0937,0.7207 l 0,0.99902 z m -2.21778,-0.10839 1.66113,-1.27442 q -0.0469,-0.4248 -0.24902,-0.64453 -0.19922,-0.22266 -0.57715,-0.22266 -0.42773,0 -0.63281,0.29004 -0.20215,0.28711 -0.20215,0.84082 l 0,1.01075 z m 1.67285,-0.75586 -1.6582,1.26855 q 0.0498,0.41309 0.25488,0.62988 0.20508,0.2168 0.57129,0.2168 0.43067,0 0.62989,-0.29297 0.20214,-0.29297 0.20214,-0.84375 l 0,-0.97851 z"
           style="font-style:normal;font-variant:normal;font-weight:normal;font-stretch:normal;font-family:'Roboto Mono';-inkscape-font-specification:'Roboto Mono';fill:#efefef;fill-opacity:1"
           id="path6369" />
      </g>
      <g
         style="font-style:normal;font-variant:normal;font-weight:normal;font-stretch:normal;font-size:6px;line-height:125%;font-family:Sans;-inkscape-font-specification:Sans;text-align:center;letter-spacing:0px;word-spacing:0px;writing-mode:lr-tb;text-anchor:middle;fill:#efefef;fill-opacity:1;stroke:none"
         id="text4671">
        <path
           d="m 575.93658,131.46669 -0.85253,0 0,1.74023 -0.53907,0 0,-4.26562 1.25098,0 q 0.29883,0.006 0.5625,0.085 0.26367,0.0791 0.45996,0.23731 0.19922,0.1582 0.31055,0.39843 0.11426,0.23731 0.11426,0.55957 0,0.20801 -0.0615,0.38086 -0.0586,0.17285 -0.16406,0.31348 -0.10547,0.14062 -0.25195,0.24902 -0.14649,0.1084 -0.32227,0.18457 l 0.90527,1.82227 -0.003,0.0351 -0.57128,0 -0.8379,-1.74023 z m -0.85253,-0.44531 0.72656,0 q 0.18164,-0.003 0.34277,-0.0557 0.16113,-0.0557 0.28125,-0.1582 0.12305,-0.10254 0.19336,-0.24902 0.0703,-0.14942 0.0703,-0.34278 0,-0.20507 -0.0674,-0.35742 -0.0674,-0.15527 -0.1875,-0.25781 -0.12012,-0.10547 -0.28711,-0.1582 -0.16406,-0.0527 -0.36035,-0.0557 l -0.71191,0 0,1.63477 z"
           style="font-style:normal;font-variant:normal;font-weight:normal;font-stretch:normal;font-family:'Roboto Mono';-inkscape-font-specification:'Roboto Mono';fill:#efefef;fill-opacity:1"
           id="path6350" />
        <path
           d="m 580.46881,131.23524 -1.78125,0 0,1.51172 2.07715,0 0,0.45996 -2.61914,0 0,-4.26562 2.59277,0 0,0.46289 -2.05078,0 0,1.37109 1.78125,0 0,0.45996 z"
           style="font-style:normal;font-variant:normal;font-weight:normal;font-stretch:normal;font-family:'Roboto Mono';-inkscape-font-specification:'Roboto Mono';fill:#efefef;fill-opacity:1"
           id="path6352" />
        <path
           d="m 583.95221,132.1288 q 0,-0.19629 -0.0908,-0.33106 -0.0879,-0.13476 -0.22852,-0.22558 -0.14062,-0.0937 -0.31054,-0.15527 -0.167,-0.0615 -0.32227,-0.11133 -0.22558,-0.0732 -0.45996,-0.17578 -0.23145,-0.10254 -0.4248,-0.25196 -0.19043,-0.14941 -0.31348,-0.35156 -0.12012,-0.20508 -0.12012,-0.48047 0,-0.27539 0.12012,-0.49219 0.12305,-0.21679 0.31933,-0.36621 0.19629,-0.14941 0.44532,-0.22558 0.24902,-0.0791 0.50097,-0.0791 0.27832,0 0.53614,0.0937 0.25781,0.0908 0.45703,0.25781 0.19922,0.16699 0.31933,0.4043 0.12012,0.2373 0.12598,0.53027 l -0.55664,0 q -0.0234,-0.18457 -0.0908,-0.33399 -0.0674,-0.15234 -0.17871,-0.26074 -0.11133,-0.1084 -0.2666,-0.16699 -0.15235,-0.0615 -0.34571,-0.0615 -0.15527,0 -0.30468,0.0439 -0.14649,0.0439 -0.26368,0.13184 -0.11425,0.0879 -0.18457,0.21679 -0.0674,0.12891 -0.0674,0.29883 0.003,0.18457 0.0937,0.31348 0.0908,0.12598 0.22852,0.21387 0.14062,0.0879 0.30175,0.14648 0.16407,0.0586 0.30762,0.10254 0.15821,0.0498 0.31934,0.11426 0.16113,0.0615 0.31054,0.14355 0.14942,0.082 0.27833,0.18457 0.1289,0.10254 0.22558,0.23438 0.0967,0.1289 0.14942,0.28711 0.0557,0.15527 0.0557,0.3457 0,0.28711 -0.12891,0.50098 -0.12597,0.21386 -0.32812,0.35742 -0.20215,0.14062 -0.45703,0.21387 -0.25489,0.0703 -0.50977,0.0703 -0.28418,0 -0.55664,-0.0879 -0.27246,-0.0879 -0.48926,-0.25196 -0.21386,-0.16699 -0.34863,-0.40429 -0.13477,-0.24024 -0.14355,-0.54492 l 0.55371,0 q 0.0264,0.19921 0.10839,0.35449 0.082,0.15234 0.21094,0.26074 0.12891,0.10547 0.2959,0.16113 0.16992,0.0527 0.36914,0.0527 0.1582,0 0.31055,-0.0381 0.15527,-0.041 0.27539,-0.12305 0.12012,-0.085 0.19629,-0.21093 0.0762,-0.12891 0.0762,-0.30469 z"
           style="font-style:normal;font-variant:normal;font-weight:normal;font-stretch:normal;font-family:'Roboto Mono';-inkscape-font-specification:'Roboto Mono';fill:#efefef;fill-opacity:1"
           id="path6354" />
        <path
           d="m 587.66412,131.23524 -1.78125,0 0,1.51172 2.07715,0 0,0.45996 -2.61914,0 0,-4.26562 2.59277,0 0,0.46289 -2.05078,0 0,1.37109 1.78125,0 0,0.45996 z"
           style="font-style:normal;font-variant:normal;font-weight:normal;font-stretch:normal;font-family:'Roboto Mono';-inkscape-font-specification:'Roboto Mono';fill:#efefef;fill-opacity:1"
           id="path6356" />
        <path
           d="m 591.79205,129.40419 -1.31836,0 0,3.80273 -0.52734,0 0,-3.80273 -1.31836,0 0,-0.46289 3.16406,0 0,0.46289 z"
           style="font-style:normal;font-variant:normal;font-weight:normal;font-stretch:normal;font-family:'Roboto Mono';-inkscape-font-specification:'Roboto Mono';fill:#efefef;fill-opacity:1"
           id="path6358" />
      </g>
      <g
         style="font-style:normal;font-variant:normal;font-weight:normal;font-stretch:normal;font-size:6px;line-height:125%;font-family:Sans;-inkscape-font-specification:Sans;text-align:center;letter-spacing:0px;word-spacing:0px;writing-mode:lr-tb;text-anchor:middle;fill:#efefef;fill-opacity:1;stroke:none"
         id="text4675">
        <path
           d="m 577.50397,137.14879 q -0.0381,0.2959 -0.15235,0.54492 -0.11425,0.24609 -0.29882,0.42481 -0.18165,0.17578 -0.4336,0.27539 -0.24902,0.0967 -0.55664,0.0967 -0.26367,0 -0.48047,-0.0733 -0.21386,-0.0762 -0.38379,-0.208 -0.16699,-0.13184 -0.29004,-0.31055 -0.12011,-0.17871 -0.20214,-0.38965 -0.0791,-0.21094 -0.12012,-0.44238 -0.0381,-0.23145 -0.041,-0.46875 l 0,-0.59473 q 0.003,-0.2373 0.041,-0.46875 0.041,-0.23144 0.12012,-0.44238 0.082,-0.21094 0.20214,-0.38965 0.12305,-0.18164 0.29004,-0.31348 0.16993,-0.13183 0.38379,-0.20508 0.21387,-0.0762 0.48047,-0.0762 0.31934,0 0.57129,0.0996 0.25195,0.0967 0.43359,0.27832 0.18164,0.17871 0.29004,0.43067 0.11133,0.25195 0.14649,0.55664 l -0.54199,0 q -0.0264,-0.19336 -0.0908,-0.36035 -0.0644,-0.167 -0.17285,-0.29297 -0.1084,-0.12598 -0.2666,-0.19629 -0.15527,-0.0732 -0.36914,-0.0732 -0.19336,0 -0.34277,0.0644 -0.14649,0.0615 -0.25489,0.16992 -0.10546,0.1084 -0.17871,0.25195 -0.0703,0.14356 -0.11425,0.30469 -0.0439,0.16113 -0.0645,0.33106 -0.0176,0.16699 -0.0176,0.32519 l 0,0.60059 q 0,0.1582 0.0176,0.32812 0.0205,0.16699 0.0645,0.33106 0.0439,0.16113 0.11425,0.30468 0.0703,0.14356 0.17871,0.25489 0.1084,0.1084 0.25489,0.17285 0.14648,0.0615 0.34277,0.0615 0.21387,0 0.36914,-0.0674 0.1582,-0.0674 0.2666,-0.1875 0.1084,-0.12305 0.17285,-0.28711 0.0645,-0.16699 0.0908,-0.36035 l 0.54199,0 z"
           style="font-style:normal;font-variant:normal;font-weight:normal;font-stretch:normal;font-family:'Roboto Mono';-inkscape-font-specification:'Roboto Mono';fill:#efefef;fill-opacity:1"
           id="path6339" />
        <path
           d="m 581.01373,138.43199 -0.51269,0 0,-1.97168 -1.74903,0 0,1.97168 -0.50976,0 0,-4.26562 0.50976,0 0,1.83398 1.74903,0 0,-1.83398 0.51269,0 0,4.26562 z"
           style="font-style:normal;font-variant:normal;font-weight:normal;font-stretch:normal;font-family:'Roboto Mono';-inkscape-font-specification:'Roboto Mono';fill:#efefef;fill-opacity:1"
           id="path6341" />
        <path
           d="m 584.56744,138.87437 -2.68652,0 0,-0.44238 2.68652,0 0,0.44238 z"
           style="font-style:normal;font-variant:normal;font-weight:normal;font-stretch:normal;font-family:'Roboto Mono';-inkscape-font-specification:'Roboto Mono';fill:#efefef;fill-opacity:1"
           id="path6343" />
        <path
           d="m 586.12604,136.72105 0,1.71094 -0.54199,0 0,-4.26562 1.38281,0 q 0.28711,0.006 0.54199,0.0908 0.25781,0.085 0.45117,0.24609 0.19336,0.16113 0.30469,0.39844 0.11426,0.2373 0.11426,0.54492 0,0.30762 -0.11426,0.54492 -0.11133,0.23438 -0.30469,0.39551 -0.19336,0.16113 -0.45117,0.24609 -0.25488,0.085 -0.54199,0.0879 l -0.84082,0 z m 0,-0.44531 0.84082,0 q 0.1875,-0.003 0.3457,-0.0586 0.1582,-0.0586 0.27539,-0.16406 0.11719,-0.10547 0.18164,-0.25489 0.0674,-0.15234 0.0674,-0.3457 0,-0.19336 -0.0674,-0.34863 -0.0644,-0.15528 -0.18164,-0.26368 -0.11426,-0.10839 -0.27539,-0.16699 -0.1582,-0.0586 -0.3457,-0.0615 l -0.84082,0 0,1.66406 z"
           style="font-style:normal;font-variant:normal;font-weight:normal;font-stretch:normal;font-family:'Roboto Mono';-inkscape-font-specification:'Roboto Mono';fill:#efefef;fill-opacity:1"
           id="path6345" />
        <path
           d="m 589.07623,138.43199 0,-4.26562 0.98731,0 q 0.44531,0.006 0.79394,0.15234 0.35157,0.14356 0.5918,0.4043 0.24316,0.25781 0.36914,0.62109 0.12891,0.36035 0.13184,0.79981 l 0,0.31347 q -0.003,0.43946 -0.13184,0.80274 -0.12598,0.36035 -0.36914,0.62109 -0.24023,0.25781 -0.5918,0.4043 -0.34863,0.14355 -0.79394,0.14648 l -0.98731,0 z m 0.55078,-3.82031 0,3.37793 0.43653,0 q 0.3457,-0.003 0.59765,-0.12012 0.25196,-0.12012 0.41602,-0.32519 0.16699,-0.20508 0.24609,-0.4834 0.082,-0.27832 0.085,-0.60352 l 0,-0.31933 q -0.003,-0.3252 -0.085,-0.60059 -0.082,-0.27832 -0.24609,-0.48047 -0.16406,-0.20508 -0.41602,-0.32226 -0.25195,-0.11719 -0.59765,-0.12305 l -0.43653,0 z"
           style="font-style:normal;font-variant:normal;font-weight:normal;font-stretch:normal;font-family:'Roboto Mono';-inkscape-font-specification:'Roboto Mono';fill:#efefef;fill-opacity:1"
           id="path6347" />
      </g>
      <g
         style="font-style:normal;font-variant:normal;font-weight:normal;font-stretch:normal;font-size:6px;line-height:125%;font-family:Sans;-inkscape-font-specification:Sans;text-align:center;letter-spacing:0px;word-spacing:0px;writing-mode:lr-tb;text-anchor:middle;fill:#efefef;fill-opacity:1;stroke:none"
         id="text4679">
        <path
           d="m 577.52155,97.751335 q -0.26954,0.316406 -0.61817,0.46875 -0.34863,0.152344 -0.76465,0.149414 -0.26367,-0.0029 -0.48633,-0.0791 -0.21972,-0.0791 -0.3955,-0.213868 -0.17578,-0.137695 -0.30762,-0.322265 -0.13184,-0.18457 -0.22266,-0.398438 -0.0879,-0.216797 -0.13476,-0.451172 -0.0439,-0.237304 -0.0469,-0.477539 l 0,-0.495117 q 0.003,-0.237304 0.041,-0.471679 0.041,-0.237305 0.12305,-0.454102 0.082,-0.216797 0.20507,-0.401367 0.12305,-0.1875 0.29297,-0.322266 0.17285,-0.137695 0.38965,-0.216797 0.2168,-0.0791 0.48633,-0.0791 0.29883,0 0.55078,0.09375 0.25195,0.09082 0.43945,0.263672 0.1875,0.169921 0.30176,0.413086 0.11426,0.240234 0.14063,0.539062 l -0.53614,0 q -0.0322,-0.18457 -0.0996,-0.339844 -0.0674,-0.158203 -0.17871,-0.269531 -0.1084,-0.111328 -0.26074,-0.172852 -0.15234,-0.06445 -0.35449,-0.06445 -0.19336,0 -0.34277,0.06738 -0.14942,0.06445 -0.26075,0.175781 -0.11133,0.111329 -0.18457,0.260743 -0.0732,0.146484 -0.12011,0.310546 -0.0469,0.164063 -0.0674,0.333985 -0.0205,0.169922 -0.0205,0.328125 l 0,0.500976 q 0.003,0.161133 0.0264,0.333985 0.0264,0.169922 0.0791,0.333984 0.0527,0.164063 0.13477,0.310547 0.082,0.146484 0.19629,0.257813 0.11719,0.111328 0.26953,0.17871 0.15234,0.06445 0.3457,0.06738 0.11133,0.0029 0.23145,-0.0088 0.12304,-0.01172 0.2373,-0.04687 0.11426,-0.03516 0.21387,-0.09375 0.0996,-0.06152 0.16699,-0.158203 l 0.006,-0.958008 -0.86719,0 0,-0.457031 1.38282,0 0.009,1.564453 z"
           style="font-style:normal;font-variant:normal;font-weight:normal;font-stretch:normal;font-family:'Roboto Mono';-inkscape-font-specification:'Roboto Mono';fill:#efefef;fill-opacity:1"
           id="path6328" />
        <path
           d="m 578.95123,96.599968 0,1.710937 -0.54199,0 0,-4.265625 1.38281,0 q 0.28711,0.0059 0.542,0.09082 0.25781,0.08496 0.45117,0.246094 0.19336,0.161132 0.30468,0.398437 0.11426,0.237305 0.11426,0.544922 0,0.307617 -0.11426,0.544922 -0.11132,0.234375 -0.30468,0.395508 -0.19336,0.161132 -0.45117,0.246093 -0.25489,0.08496 -0.542,0.08789 l -0.84082,0 z m 0,-0.445313 0.84082,0 q 0.1875,-0.0029 0.34571,-0.05859 0.1582,-0.05859 0.27539,-0.164063 0.11718,-0.105469 0.18164,-0.254883 0.0674,-0.152343 0.0674,-0.345703 0,-0.193359 -0.0674,-0.348633 -0.0645,-0.155273 -0.18164,-0.263671 -0.11426,-0.108399 -0.27539,-0.166993 -0.15821,-0.05859 -0.34571,-0.06152 l -0.84082,0 0,1.664062 z"
           style="font-style:normal;font-variant:normal;font-weight:normal;font-stretch:normal;font-family:'Roboto Mono';-inkscape-font-specification:'Roboto Mono';fill:#efefef;fill-opacity:1"
           id="path6330" />
        <path
           d="m 581.95709,94.04528 2.57813,0 0,0.47168 -1.02246,0 0,3.325195 1.02246,0 0,0.46875 -2.57813,0 0,-0.46875 0.99903,0 0,-3.325195 -0.99903,0 0,-0.47168 z"
           style="font-style:normal;font-variant:normal;font-weight:normal;font-stretch:normal;font-family:'Roboto Mono';-inkscape-font-specification:'Roboto Mono';fill:#efefef;fill-opacity:1"
           id="path6332" />
        <path
           d="m 588.32916,96.424187 q -0.003,0.228515 -0.041,0.46289 -0.0352,0.231446 -0.11133,0.448243 -0.0762,0.216796 -0.19629,0.404296 -0.11719,0.1875 -0.28125,0.328125 -0.16406,0.140625 -0.37793,0.222657 -0.21094,0.0791 -0.47461,0.0791 -0.26367,0 -0.47754,-0.0791 -0.21094,-0.08203 -0.375,-0.222657 -0.16406,-0.140625 -0.28418,-0.328125 -0.12012,-0.190429 -0.19922,-0.407226 -0.0762,-0.216797 -0.11425,-0.448242 -0.0381,-0.231446 -0.041,-0.459961 l 0,-0.486328 q 0.003,-0.228516 0.0381,-0.459961 0.0381,-0.234375 0.11425,-0.451172 0.0791,-0.216797 0.19629,-0.404297 0.12012,-0.19043 0.28418,-0.331055 0.16406,-0.143554 0.375,-0.222656 0.21387,-0.08203 0.47754,-0.08203 0.26367,0 0.47754,0.08203 0.21387,0.0791 0.37793,0.219727 0.16406,0.140625 0.28125,0.331054 0.12012,0.1875 0.19629,0.404297 0.0791,0.216797 0.11426,0.451172 0.0381,0.234375 0.041,0.462891 l 0,0.486328 z m -0.53613,-0.492188 q -0.003,-0.152344 -0.0205,-0.316406 -0.0176,-0.166992 -0.0615,-0.328125 -0.041,-0.164063 -0.11133,-0.310547 -0.0703,-0.149414 -0.17578,-0.260742 -0.10547,-0.114258 -0.24902,-0.178711 -0.14356,-0.06738 -0.33399,-0.06738 -0.1875,0 -0.33105,0.06738 -0.14356,0.06738 -0.24903,0.181641 -0.10547,0.111328 -0.17578,0.260742 -0.0703,0.146484 -0.11426,0.310547 -0.041,0.161132 -0.0615,0.328125 -0.0176,0.164062 -0.0205,0.313476 l 0,0.492188 q 0.003,0.149414 0.0205,0.316406 0.0205,0.166992 0.0645,0.331055 0.0439,0.161132 0.11426,0.310547 0.0703,0.149414 0.17578,0.263671 0.10547,0.111329 0.24903,0.178711 0.14355,0.06738 0.33398,0.06738 0.19043,0 0.33399,-0.06738 0.14648,-0.06738 0.24902,-0.178711 0.10547,-0.114257 0.17285,-0.260742 0.0703,-0.149414 0.11133,-0.310547 0.0439,-0.164062 0.0586,-0.331054 0.0176,-0.166993 0.0205,-0.319336 l 0,-0.492188 z"
           style="font-style:normal;font-variant:normal;font-weight:normal;font-stretch:normal;font-family:'Roboto Mono';-inkscape-font-specification:'Roboto Mono';fill:#efefef;fill-opacity:1"
           id="path6334" />
        <path
           d="m 595.36627,98.310905 -2.79492,0 0,-0.389648 1.39746,-1.552734 q 0.1875,-0.208008 0.31348,-0.369141 0.12597,-0.161133 0.20215,-0.295898 0.0762,-0.137696 0.10839,-0.257813 0.0322,-0.123047 0.0322,-0.251953 0,-0.158203 -0.0527,-0.295898 -0.0498,-0.140625 -0.14942,-0.243165 -0.0967,-0.102539 -0.2373,-0.161132 -0.1377,-0.06152 -0.31348,-0.06152 -0.21387,0 -0.37207,0.06152 -0.15527,0.06152 -0.26074,0.175781 -0.10254,0.111328 -0.15527,0.272461 -0.0498,0.161133 -0.0498,0.360351 l -0.54492,0 q 0,-0.269531 0.0937,-0.506836 0.0937,-0.240234 0.26953,-0.418945 0.17871,-0.178711 0.43359,-0.28418 0.25782,-0.105468 0.58594,-0.105468 0.30176,0 0.54199,0.09082 0.24317,0.08789 0.41016,0.246094 0.16699,0.158203 0.25488,0.375 0.0908,0.216797 0.0908,0.471679 0,0.19043 -0.0644,0.37793 -0.0645,0.18457 -0.17578,0.366211 -0.1084,0.181641 -0.25488,0.360352 -0.14356,0.175781 -0.30469,0.351562 l -1.14551,1.242188 2.1416,0 0,0.442382 z"
           style="font-style:normal;font-variant:normal;font-weight:normal;font-stretch:normal;font-family:'Roboto Mono';-inkscape-font-specification:'Roboto Mono';fill:#efefef;fill-opacity:1"
           id="path6336" />
      </g>
      <g
         style="font-style:normal;font-variant:normal;font-weight:normal;font-stretch:normal;font-size:6px;line-height:125%;font-family:Sans;-inkscape-font-specification:Sans;text-align:center;letter-spacing:0px;word-spacing:0px;writing-mode:lr-tb;text-anchor:middle;fill:#efefef;fill-opacity:1;stroke:none"
         id="text4683">
        <path
           d="m 577.70905,117.8344 -1.31836,0 0,3.80274 -0.52735,0 0,-3.80274 -1.31836,0 0,-0.46289 3.16407,0 0,0.46289 z"
           style="font-style:normal;font-variant:normal;font-weight:normal;font-stretch:normal;font-family:'Roboto Mono';-inkscape-font-specification:'Roboto Mono';fill:#efefef;fill-opacity:1"
           id="path6323" />
        <path
           d="m 579.75104,119.04436 0.91992,-1.67285 0.63867,0 -1.23926,2.11524 1.26856,2.15039 -0.63281,0 -0.94336,-1.70508 -0.94629,1.70508 -0.6416,0 1.27148,-2.15039 -1.23926,-2.11524 0.63574,0 0.90821,1.67285 z"
           style="font-style:normal;font-variant:normal;font-weight:normal;font-stretch:normal;font-family:'Roboto Mono';-inkscape-font-specification:'Roboto Mono';fill:#efefef;fill-opacity:1"
           id="path6325" />
      </g>
      <g
         style="font-style:normal;font-variant:normal;font-weight:normal;font-stretch:normal;font-size:6px;line-height:125%;font-family:Sans;-inkscape-font-specification:Sans;text-align:center;letter-spacing:0px;word-spacing:0px;writing-mode:lr-tb;text-anchor:middle;fill:#efefef;fill-opacity:1;stroke:none"
         id="text4687">
        <path
           d="m 577.52155,144.40376 q -0.26954,0.31641 -0.61817,0.46875 -0.34863,0.15235 -0.76465,0.14942 -0.26367,-0.003 -0.48633,-0.0791 -0.21972,-0.0791 -0.3955,-0.21387 -0.17578,-0.1377 -0.30762,-0.32227 -0.13184,-0.18457 -0.22266,-0.39843 -0.0879,-0.2168 -0.13476,-0.45118 -0.0439,-0.2373 -0.0469,-0.47754 l 0,-0.49511 q 0.003,-0.23731 0.041,-0.47168 0.041,-0.23731 0.12305,-0.4541 0.082,-0.2168 0.20507,-0.40137 0.12305,-0.1875 0.29297,-0.32227 0.17285,-0.13769 0.38965,-0.21679 0.2168,-0.0791 0.48633,-0.0791 0.29883,0 0.55078,0.0937 0.25195,0.0908 0.43945,0.26368 0.1875,0.16992 0.30176,0.41308 0.11426,0.24024 0.14063,0.53906 l -0.53614,0 q -0.0322,-0.18457 -0.0996,-0.33984 -0.0674,-0.1582 -0.17871,-0.26953 -0.1084,-0.11133 -0.26074,-0.17285 -0.15234,-0.0644 -0.35449,-0.0644 -0.19336,0 -0.34277,0.0674 -0.14942,0.0644 -0.26075,0.17578 -0.11133,0.11133 -0.18457,0.26074 -0.0732,0.14649 -0.12011,0.31055 -0.0469,0.16406 -0.0674,0.33398 -0.0205,0.16992 -0.0205,0.32813 l 0,0.50097 q 0.003,0.16114 0.0264,0.33399 0.0264,0.16992 0.0791,0.33398 0.0527,0.16407 0.13477,0.31055 0.082,0.14648 0.19629,0.25781 0.11719,0.11133 0.26953,0.17871 0.15234,0.0645 0.3457,0.0674 0.11133,0.003 0.23145,-0.009 0.12304,-0.0117 0.2373,-0.0469 0.11426,-0.0352 0.21387,-0.0937 0.0996,-0.0615 0.16699,-0.1582 l 0.006,-0.95801 -0.86719,0 0,-0.45703 1.38282,0 0.009,1.56445 z"
           style="font-style:normal;font-variant:normal;font-weight:normal;font-stretch:normal;font-family:'Roboto Mono';-inkscape-font-specification:'Roboto Mono';fill:#efefef;fill-opacity:1"
           id="path6316" />
        <path
           d="m 581.03131,144.96333 -0.55078,0 -1.65527,-3.1875 -0.009,3.1875 -0.54785,0 0,-4.26562 0.55078,0 1.65527,3.18164 0.009,-3.18164 0.54785,0 0,4.26562 z"
           style="font-style:normal;font-variant:normal;font-weight:normal;font-stretch:normal;font-family:'Roboto Mono';-inkscape-font-specification:'Roboto Mono';fill:#efefef;fill-opacity:1"
           id="path6318" />
        <path
           d="m 581.90143,144.96333 0,-4.26562 0.9873,0 q 0.44532,0.006 0.79395,0.15234 0.35156,0.14356 0.5918,0.4043 0.24316,0.25781 0.36914,0.62109 0.1289,0.36035 0.13183,0.79981 l 0,0.31347 q -0.003,0.43946 -0.13183,0.80274 -0.12598,0.36035 -0.36914,0.62109 -0.24024,0.25781 -0.5918,0.4043 -0.34863,0.14355 -0.79395,0.14648 l -0.9873,0 z m 0.55078,-3.82031 0,3.37793 0.43652,0 q 0.34571,-0.003 0.59766,-0.12012 0.25195,-0.12011 0.41601,-0.32519 0.167,-0.20508 0.2461,-0.4834 0.082,-0.27832 0.085,-0.60352 l 0,-0.31933 q -0.003,-0.3252 -0.085,-0.60059 -0.082,-0.27832 -0.2461,-0.48047 -0.16406,-0.20507 -0.41601,-0.32226 -0.25195,-0.11719 -0.59766,-0.12305 l -0.43652,0 z"
           style="font-style:normal;font-variant:normal;font-weight:normal;font-stretch:normal;font-family:'Roboto Mono';-inkscape-font-specification:'Roboto Mono';fill:#efefef;fill-opacity:1"
           id="path6320" />
      </g>
      <path
         id="path4691"
         d="m 540.22825,97.751081 14.36895,-18.10114 16.98148,0.18661"
         style="fill:none;stroke:#ff0000;stroke-width:1.39999998;stroke-linecap:round;stroke-linejoin:round;stroke-miterlimit:4;stroke-dasharray:none;stroke-opacity:1" />
      <g
         style="font-style:normal;font-variant:normal;font-weight:normal;font-stretch:normal;font-size:6px;line-height:125%;font-family:Sans;-inkscape-font-specification:Sans;text-align:center;letter-spacing:0px;word-spacing:0px;writing-mode:lr-tb;text-anchor:middle;fill:#efefef;fill-opacity:1;stroke:none"
         id="text4693">
        <path
           d="m 577.52155,81.329704 q -0.26954,0.316407 -0.61817,0.46875 -0.34863,0.152344 -0.76465,0.149414 -0.26367,-0.0029 -0.48633,-0.0791 -0.21972,-0.0791 -0.3955,-0.213867 -0.17578,-0.137696 -0.30762,-0.322266 -0.13184,-0.18457 -0.22266,-0.398438 -0.0879,-0.216796 -0.13476,-0.451171 -0.0439,-0.237305 -0.0469,-0.477539 l 0,-0.495118 q 0.003,-0.237304 0.041,-0.471679 0.041,-0.237305 0.12305,-0.454102 0.082,-0.216797 0.20507,-0.401367 0.12305,-0.1875 0.29297,-0.322266 0.17285,-0.137695 0.38965,-0.216797 0.2168,-0.0791 0.48633,-0.0791 0.29883,0 0.55078,0.09375 0.25195,0.09082 0.43945,0.263672 0.1875,0.169922 0.30176,0.413086 0.11426,0.240234 0.14063,0.539062 l -0.53614,0 q -0.0322,-0.18457 -0.0996,-0.339844 -0.0674,-0.158203 -0.17871,-0.269531 -0.1084,-0.111328 -0.26074,-0.172851 -0.15234,-0.06445 -0.35449,-0.06445 -0.19336,0 -0.34277,0.06738 -0.14942,0.06445 -0.26075,0.175782 -0.11133,0.111328 -0.18457,0.260742 -0.0732,0.146484 -0.12011,0.310547 -0.0469,0.164062 -0.0674,0.333984 -0.0205,0.169922 -0.0205,0.328125 l 0,0.500977 q 0.003,0.161132 0.0264,0.333984 0.0264,0.169922 0.0791,0.333984 0.0527,0.164063 0.13477,0.310547 0.082,0.146485 0.19629,0.257813 0.11719,0.111328 0.26953,0.178711 0.15234,0.06445 0.3457,0.06738 0.11133,0.0029 0.23145,-0.0088 0.12304,-0.01172 0.2373,-0.04687 0.11426,-0.03516 0.21387,-0.09375 0.0996,-0.06152 0.16699,-0.158203 l 0.006,-0.958008 -0.86719,0 0,-0.457031 1.38282,0 0.009,1.564453 z"
           style="font-style:normal;font-variant:normal;font-weight:normal;font-stretch:normal;font-family:'Roboto Mono';-inkscape-font-specification:'Roboto Mono';fill:#efefef;fill-opacity:1"
           id="path6291" />
        <path
           d="m 580.9903,82.331657 -2.68653,0 0,-0.442382 2.68653,0 0,0.442382 z"
           style="font-style:normal;font-variant:normal;font-weight:normal;font-stretch:normal;font-family:'Roboto Mono';-inkscape-font-specification:'Roboto Mono';fill:#efefef;fill-opacity:1"
           id="path6293" />
        <path
           d="m 583.3692,80.14904 -0.85254,0 0,1.740235 -0.53906,0 0,-4.265625 1.25098,0 q 0.29882,0.0059 0.5625,0.08496 0.26367,0.0791 0.45996,0.237304 0.19922,0.158203 0.31054,0.398438 0.11426,0.237304 0.11426,0.55957 0,0.208008 -0.0615,0.380859 -0.0586,0.172852 -0.16406,0.313477 -0.10547,0.140625 -0.25196,0.249023 -0.14648,0.108399 -0.32226,0.184571 l 0.90527,1.822265 -0.003,0.03516 -0.57129,0 -0.83789,-1.740235 z m -0.85254,-0.445312 0.72657,0 q 0.18164,-0.0029 0.34277,-0.05566 0.16113,-0.05566 0.28125,-0.158203 0.12305,-0.10254 0.19336,-0.249024 0.0703,-0.149414 0.0703,-0.342773 0,-0.205078 -0.0674,-0.357422 -0.0674,-0.155274 -0.1875,-0.257813 -0.12012,-0.105468 -0.28711,-0.158203 -0.16406,-0.05273 -0.36035,-0.05566 l -0.71192,0 0,1.634766 z"
           style="font-style:normal;font-variant:normal;font-weight:normal;font-stretch:normal;font-family:'Roboto Mono';-inkscape-font-specification:'Roboto Mono';fill:#efefef;fill-opacity:1"
           id="path6295" />
        <path
           d="m 587.31256,81.889275 -0.54199,0 0,-3.574219 -1.11621,0.424805 0,-0.495118 1.61426,-0.621093 0.0439,0 0,4.265625 z"
           style="font-style:normal;font-variant:normal;font-weight:normal;font-stretch:normal;font-family:'Roboto Mono';-inkscape-font-specification:'Roboto Mono';fill:#efefef;fill-opacity:1"
           id="path6297" />
        <path
           d="m 591.78326,82.331657 -2.68652,0 0,-0.442382 2.68652,0 0,0.442382 z"
           style="font-style:normal;font-variant:normal;font-weight:normal;font-stretch:normal;font-family:'Roboto Mono';-inkscape-font-specification:'Roboto Mono';fill:#efefef;fill-opacity:1"
           id="path6299" />
        <path
           d="m 594.50787,81.889275 -0.54199,0 0,-3.574219 -1.11621,0.424805 0,-0.495118 1.61426,-0.621093 0.0439,0 0,4.265625 z"
           style="font-style:normal;font-variant:normal;font-weight:normal;font-stretch:normal;font-family:'Roboto Mono';-inkscape-font-specification:'Roboto Mono';fill:#efefef;fill-opacity:1"
           id="path6301" />
        <path
           d="m 599.11041,80.606071 q -0.0381,0.295899 -0.15234,0.544922 -0.11426,0.246094 -0.29883,0.424805 -0.18164,0.175781 -0.43359,0.275391 -0.24903,0.09668 -0.55664,0.09668 -0.26368,0 -0.48047,-0.07324 -0.21387,-0.07617 -0.38379,-0.208008 -0.16699,-0.131836 -0.29004,-0.310547 -0.12012,-0.17871 -0.20215,-0.389648 -0.0791,-0.210937 -0.12012,-0.442383 -0.0381,-0.231445 -0.041,-0.46875 l 0,-0.594726 q 0.003,-0.237305 0.041,-0.46875 0.041,-0.231446 0.12012,-0.442383 0.082,-0.210938 0.20215,-0.389649 0.12305,-0.18164 0.29004,-0.313476 0.16992,-0.131836 0.38379,-0.205078 0.21386,-0.07617 0.48047,-0.07617 0.31933,0 0.57129,0.09961 0.25195,0.09668 0.43359,0.278321 0.18164,0.17871 0.29004,0.430664 0.11133,0.251953 0.14648,0.55664 l -0.54199,0 q -0.0264,-0.193359 -0.0908,-0.360351 -0.0645,-0.166993 -0.17285,-0.292969 -0.1084,-0.125977 -0.2666,-0.196289 -0.15528,-0.07324 -0.36914,-0.07324 -0.19336,0 -0.34278,0.06445 -0.14648,0.06152 -0.25488,0.169922 -0.10547,0.108398 -0.17871,0.251953 -0.0703,0.143554 -0.11426,0.304687 -0.0439,0.161133 -0.0644,0.331055 -0.0176,0.166992 -0.0176,0.325195 l 0,0.600586 q 0,0.158203 0.0176,0.328125 0.0205,0.166992 0.0644,0.331055 0.0439,0.161133 0.11426,0.304687 0.0703,0.143555 0.17871,0.254883 0.1084,0.108399 0.25488,0.172852 0.14649,0.06152 0.34278,0.06152 0.21386,0 0.36914,-0.06738 0.1582,-0.06738 0.2666,-0.1875 0.1084,-0.123046 0.17285,-0.287109 0.0644,-0.166992 0.0908,-0.360352 l 0.54199,0 z"
           style="font-style:normal;font-variant:normal;font-weight:normal;font-stretch:normal;font-family:'Roboto Mono';-inkscape-font-specification:'Roboto Mono';fill:#efefef;fill-opacity:1"
           id="path6303" />
        <path
           d="m 602.62311,80.257439 q 0,0.407226 -0.0937,0.723632 -0.0937,0.313477 -0.26953,0.530274 -0.17578,0.213867 -0.43067,0.325195 -0.25488,0.111328 -0.58301,0.111328 -0.32519,0 -0.583,-0.111328 -0.25489,-0.111328 -0.4336,-0.325195 -0.17871,-0.216797 -0.27539,-0.530274 -0.0937,-0.316406 -0.0937,-0.723632 l 0,-0.999024 q 0,-0.407226 0.0937,-0.720703 0.0937,-0.316406 0.26953,-0.533203 0.17871,-0.216797 0.4336,-0.328125 0.25781,-0.114258 0.58301,-0.114258 0.32812,0 0.583,0.114258 0.25782,0.111328 0.4336,0.328125 0.17871,0.216797 0.27246,0.533203 0.0937,0.313477 0.0937,0.720703 l 0,0.999024 z m -2.21778,-0.108399 1.66114,-1.274414 q -0.0469,-0.424805 -0.24903,-0.644531 -0.19921,-0.222656 -0.57714,-0.222656 -0.42774,0 -0.63282,0.290039 -0.20215,0.287109 -0.20215,0.84082 l 0,1.010742 z m 1.67286,-0.755859 -1.65821,1.268555 q 0.0498,0.413085 0.25489,0.629882 0.20507,0.216797 0.57128,0.216797 0.43067,0 0.62989,-0.292969 0.20215,-0.292968 0.20215,-0.84375 l 0,-0.978515 z"
           style="font-style:normal;font-variant:normal;font-weight:normal;font-stretch:normal;font-family:'Roboto Mono';-inkscape-font-specification:'Roboto Mono';fill:#efefef;fill-opacity:1"
           id="path6305" />
        <path
           d="m 604.13776,77.62365 0.69433,2.132812 0.75,-2.132812 0.67383,0 0,4.265625 -0.52734,0 0,-1.702149 0.0439,-1.78125 -0.78808,2.296875 -0.31055,0 -0.72363,-2.235351 0.0439,1.719726 0,1.702149 -0.52734,0 0,-4.265625 0.6709,0 z"
           style="font-style:normal;font-variant:normal;font-weight:normal;font-stretch:normal;font-family:'Roboto Mono';-inkscape-font-specification:'Roboto Mono';fill:#efefef;fill-opacity:1"
           id="path6307" />
        <path
           d="m 607.73248,80.178337 0,1.710938 -0.54199,0 0,-4.265625 1.38281,0 q 0.28711,0.0059 0.542,0.09082 0.25781,0.08496 0.45117,0.246094 0.19336,0.161132 0.30468,0.398437 0.11426,0.237305 0.11426,0.544922 0,0.307617 -0.11426,0.544922 -0.11132,0.234375 -0.30468,0.395508 -0.19336,0.161133 -0.45117,0.246093 -0.25489,0.08496 -0.542,0.08789 l -0.84082,0 z m 0,-0.445312 0.84082,0 q 0.1875,-0.0029 0.34571,-0.05859 0.1582,-0.05859 0.27539,-0.164063 0.11718,-0.105468 0.18164,-0.254882 0.0674,-0.152344 0.0674,-0.345704 0,-0.193359 -0.0674,-0.348632 -0.0645,-0.155274 -0.18164,-0.263672 -0.11426,-0.108399 -0.27539,-0.166992 -0.15821,-0.05859 -0.34571,-0.06152 l -0.84082,0 0,1.664063 z"
           style="font-style:normal;font-variant:normal;font-weight:normal;font-stretch:normal;font-family:'Roboto Mono';-inkscape-font-specification:'Roboto Mono';fill:#efefef;fill-opacity:1"
           id="path6309" />
        <path
           d="m 612.15045,80.14904 -0.85254,0 0,1.740235 -0.53906,0 0,-4.265625 1.25098,0 q 0.29882,0.0059 0.5625,0.08496 0.26367,0.0791 0.45996,0.237304 0.19922,0.158203 0.31054,0.398438 0.11426,0.237304 0.11426,0.55957 0,0.208008 -0.0615,0.380859 -0.0586,0.172852 -0.16406,0.313477 -0.10547,0.140625 -0.25196,0.249023 -0.14648,0.108399 -0.32226,0.184571 l 0.90527,1.822265 -0.003,0.03516 -0.57129,0 -0.83789,-1.740235 z m -0.85254,-0.445312 0.72657,0 q 0.18164,-0.0029 0.34277,-0.05566 0.16113,-0.05566 0.28125,-0.158203 0.12305,-0.10254 0.19336,-0.249024 0.0703,-0.149414 0.0703,-0.342773 0,-0.205078 -0.0674,-0.357422 -0.0674,-0.155274 -0.1875,-0.257813 -0.12012,-0.105468 -0.28711,-0.158203 -0.16406,-0.05273 -0.36035,-0.05566 l -0.71192,0 0,1.634766 z"
           style="font-style:normal;font-variant:normal;font-weight:normal;font-stretch:normal;font-family:'Roboto Mono';-inkscape-font-specification:'Roboto Mono';fill:#efefef;fill-opacity:1"
           id="path6311" />
        <path
           d="m 616.09381,81.889275 -0.54199,0 0,-3.574219 -1.11621,0.424805 0,-0.495118 1.61426,-0.621093 0.0439,0 0,4.265625 z"
           style="font-style:normal;font-variant:normal;font-weight:normal;font-stretch:normal;font-family:'Roboto Mono';-inkscape-font-specification:'Roboto Mono';fill:#efefef;fill-opacity:1"
           id="path6313" />
      </g>
      <path
         id="path4701"
         d="m 514.30163,50.443161 c -0.3271,-1.78142 -1.02102,-3.28123 -1.94022,-4.1935 l -0.69821,-0.69294 0.57683,-0.43997 c 1.15444,-0.88054 2.18898,-0.9594 4.13751,-0.3154 l 1.34581,0.4448 -0.10741,0.67172 c -0.16586,1.03722 -0.93806,2.70591 -2.04328,4.41541 l -1.0056,1.55541 -0.26543,-1.44553 0,0 z"
         style="fill:#0f7391;fill-opacity:1;fill-rule:evenodd;stroke:none" />
      <path
         id="path4703"
         d="m 585.89997,43.372121 c -1.45152,-1.50855 -2.45958,-2.10357 -4.46379,-2.63482 -0.18281,-0.0485 -0.16312,-0.11492 0.0857,-0.28917 0.55349,-0.38768 2.08717,-0.76316 3.11723,-0.76316 0.85011,0 4.25707,0.57672 4.4303,0.74995 0.19391,0.19391 -0.29225,1.29176 -1.11349,2.51451 -0.51886,0.77253 -0.98093,1.40481 -1.02681,1.40507 -0.0459,2.5e-4 -0.50898,-0.44182 -1.0291,-0.98238 l 0,0 z"
         style="fill:#0f7391;fill-opacity:1;fill-rule:evenodd;stroke:none" />
      <path
         id="path6257"
         d="m 512.28965,216.89576 c -4.79233,-0.72223 -18.51091,-2.74564 -30.48573,-4.49645 -11.97482,-1.75082 -21.73171,-3.21878 -21.68198,-3.26213 0.10843,-0.0945 7.71044,-0.65783 27.04093,-2.00381 7.91291,-0.55097 15.66371,-1.09663 17.224,-1.21258 2.47024,-0.18357 19.21964,-1.36451 28.77422,-2.02876 1.78319,-0.12398 9.35162,-0.67662 16.81873,-1.2281 l 13.57657,-1.00269 32.11769,2.11579 c 17.66474,1.16369 32.1177,2.21905 32.1177,2.34526 0,0.26585 -104.25617,12.23888 -105.77564,12.14753 -0.55724,-0.0335 -4.93417,-0.65183 -9.72649,-1.37406 l 0,0 z"
         style="fill:#706862;fill-opacity:0.8;fill-rule:evenodd;stroke:none" />
      <path
         id="path6259"
         d="m 489.49317,224.83695 -31.50979,-6.33892 0,-4.76522 c 0,-2.62087 0.16201,-4.76521 0.36001,-4.76521 0.19801,0 7.81203,1.09628 16.92005,2.43618 23.15401,3.40624 27.27352,4.00585 29.12343,4.23905 2.47208,0.31162 3.71977,0.49637 7.90278,1.17017 2.11754,0.3411 4.85311,0.7436 6.07906,0.89446 1.22594,0.15085 2.59373,0.32818 3.03953,0.39405 0.44579,0.0659 0.94732,0.13497 1.11449,0.15354 0.16718,0.0186 0.30395,2.95172 0.30395,6.5181 0,6.4664 -0.002,6.48422 -0.91185,6.44353 -0.50153,-0.0224 -15.09127,-2.89332 -32.42166,-6.37973 z"
         style="fill:#918a6f;fill-opacity:1;fill-rule:evenodd;stroke:none" />
      <path
         id="path6261"
         d="m 522.82668,225.17842 c 0,-4.20788 0.14758,-6.48433 0.42036,-6.48433 0.2312,0 14.68417,-1.64018 32.1177,-3.64484 17.43354,-2.00467 41.18068,-4.73474 52.77142,-6.06684 11.59074,-1.3321 21.75797,-2.52084 22.59384,-2.64164 l 1.51976,-0.21965 0,4.27285 c 0,3.06922 -0.1427,4.31452 -0.50659,4.42076 -0.87475,0.25541 -107.46112,16.85385 -108.20726,16.85086 -0.64578,-0.003 -0.70923,-0.58288 -0.70923,-6.48717 z"
         style="fill:#c8c4b7;fill-opacity:1;fill-rule:evenodd;stroke:none" />
      <ellipse
         id="path6265"
         style="fill:#ffffff;fill-opacity:1;fill-rule:evenodd;stroke:none"
         cx="524.21161"
         cy="216.94528"
         rx="2.33377"
         ry="0.56576258" />
      <ellipse
         id="path6265-7"
         style="fill:#ffffff;fill-opacity:1;fill-rule:evenodd;stroke:none"
         cx="515.93732"
         cy="215.53088"
         rx="2.33377"
         ry="0.56576258" />
      <ellipse
         id="path6265-1"
         style="fill:#ffffff;fill-opacity:1;fill-rule:evenodd;stroke:none"
         cx="509.14816"
         cy="213.69215"
         rx="2.33377"
         ry="0.56576258" />
      <ellipse
         id="path6265-2"
         style="fill:#ffffff;fill-opacity:1;fill-rule:evenodd;stroke:none"
         cx="502.64191"
         cy="212.84351"
         rx="2.33377"
         ry="0.56576258" />
      <ellipse
         id="path6265-20"
         style="fill:#ffffff;fill-opacity:1;fill-rule:evenodd;stroke:none"
         cx="495.28699"
         cy="211.85342"
         rx="2.33377"
         ry="0.56576258" />
      <ellipse
         id="path6265-0"
         style="fill:#ffffff;fill-opacity:1;fill-rule:evenodd;stroke:none"
         cx="487.50775"
         cy="210.43901"
         rx="2.33377"
         ry="0.56576258" />
      <ellipse
         id="path6265-8"
         style="fill:#ffffff;fill-opacity:1;fill-rule:evenodd;stroke:none"
         cx="480.7186"
         cy="209.59038"
         rx="2.33377"
         ry="0.56576258" />
      <ellipse
         id="path6265-6"
         style="fill:#ffffff;fill-opacity:1;fill-rule:evenodd;stroke:none"
         cx="473.22226"
         cy="208.60028"
         rx="2.33377"
         ry="0.56576258" />
      <ellipse
         id="path6265-10"
         style="fill:#ffffff;fill-opacity:1;fill-rule:evenodd;stroke:none"
         cx="531.21289"
         cy="215.81375"
         rx="2.33377"
         ry="0.56576258" />
      <ellipse
         id="path6265-9"
         style="fill:#ffffff;fill-opacity:1;fill-rule:evenodd;stroke:none"
         cx="538.70923"
         cy="214.82367"
         rx="2.33377"
         ry="0.56576258" />
      <ellipse
         id="path6265-24"
         style="fill:#ffffff;fill-opacity:1;fill-rule:evenodd;stroke:none"
         cx="547.33716"
         cy="213.97502"
         rx="2.33377"
         ry="0.56576258" />
      <ellipse
         id="path6265-15"
         style="fill:#ffffff;fill-opacity:1;fill-rule:evenodd;stroke:none"
         cx="555.25781"
         cy="212.84351"
         rx="2.33377"
         ry="0.56576258" />
      <ellipse
         id="path6265-28"
         style="fill:#ffffff;fill-opacity:1;fill-rule:evenodd;stroke:none"
         cx="616.36017"
         cy="205.77147"
         rx="2.33377"
         ry="0.56576258" />
      <ellipse
         id="path6265-17"
         style="fill:#ffffff;fill-opacity:1;fill-rule:evenodd;stroke:none"
         cx="609.14667"
         cy="206.62012"
         rx="2.33377"
         ry="0.56576258" />
      <ellipse
         id="path6265-13"
         style="fill:#ffffff;fill-opacity:1;fill-rule:evenodd;stroke:none"
         cx="601.79175"
         cy="207.46877"
         rx="2.33377"
         ry="0.56576258" />
      <ellipse
         id="path6265-5"
         style="fill:#ffffff;fill-opacity:1;fill-rule:evenodd;stroke:none"
         cx="595.14404"
         cy="208.60028"
         rx="2.33377"
         ry="0.56576258" />
      <ellipse
         id="path6265-76"
         style="fill:#ffffff;fill-opacity:1;fill-rule:evenodd;stroke:none"
         cx="588.35492"
         cy="209.16605"
         rx="2.33377"
         ry="0.56576258" />
      <ellipse
         id="path6265-80"
         style="fill:#ffffff;fill-opacity:1;fill-rule:evenodd;stroke:none"
         cx="580.00995"
         cy="209.73181"
         rx="2.33377"
         ry="0.56576258" />
      <ellipse
         id="path6265-70"
         style="fill:#ffffff;fill-opacity:1;fill-rule:evenodd;stroke:none"
         cx="571.80634"
         cy="210.86334"
         rx="2.33377"
         ry="0.56576258" />
      <ellipse
         id="path6265-57"
         style="fill:#ffffff;fill-opacity:1;fill-rule:evenodd;stroke:none"
         cx="563.46136"
         cy="212.13631"
         rx="2.33377"
         ry="0.56576258" />
      <ellipse
         id="path6265-00"
         style="fill:#ffffff;fill-opacity:1;fill-rule:evenodd;stroke:none"
         cx="486.80054"
         cy="207.6102"
         rx="2.33377"
         ry="0.56576258" />
      <ellipse
         id="path6265-66"
         style="fill:#ffffff;fill-opacity:1;fill-rule:evenodd;stroke:none"
         cx="493.02393"
         cy="208.88316"
         rx="2.33377"
         ry="0.56576258" />
      <ellipse
         id="path6265-3"
         style="fill:#ffffff;fill-opacity:1;fill-rule:evenodd;stroke:none"
         cx="499.53021"
         cy="209.73181"
         rx="2.33377"
         ry="0.56576258" />
      <ellipse
         id="path6265-56"
         style="fill:#ffffff;fill-opacity:1;fill-rule:evenodd;stroke:none"
         cx="506.17792"
         cy="210.43901"
         rx="2.33377"
         ry="0.56576258" />
      <ellipse
         id="path6265-14"
         style="fill:#ffffff;fill-opacity:1;fill-rule:evenodd;stroke:none"
         cx="514.24005"
         cy="212.13631"
         rx="2.33377"
         ry="0.56576258" />
      <ellipse
         id="path6265-83"
         style="fill:#ffffff;fill-opacity:1;fill-rule:evenodd;stroke:none"
         cx="521.31207"
         cy="213.97504"
         rx="2.33377"
         ry="0.56576258" />
      <ellipse
         id="path6265-52"
         style="fill:#ffffff;fill-opacity:1;fill-rule:evenodd;stroke:none"
         cx="528.38409"
         cy="212.98494"
         rx="2.33377"
         ry="0.56576258" />
      <ellipse
         id="path6265-99"
         style="fill:#ffffff;fill-opacity:1;fill-rule:evenodd;stroke:none"
         cx="534.89038"
         cy="212.41919"
         rx="2.33377"
         ry="0.56576258" />
      <ellipse
         id="path6265-93"
         style="fill:#ffffff;fill-opacity:1;fill-rule:evenodd;stroke:none"
         cx="541.25519"
         cy="211.57054"
         rx="2.33377"
         ry="0.56576258" />
      <ellipse
         id="path6265-71"
         style="fill:#ffffff;fill-opacity:1;fill-rule:evenodd;stroke:none"
         cx="548.75153"
         cy="210.58046"
         rx="2.33377"
         ry="0.56576258" />
      <ellipse
         id="path6265-006"
         style="fill:#ffffff;fill-opacity:1;fill-rule:evenodd;stroke:none"
         cx="555.54071"
         cy="209.87325"
         rx="2.33377"
         ry="0.56576258" />
      <ellipse
         id="path6265-77"
         style="fill:#ffffff;fill-opacity:1;fill-rule:evenodd;stroke:none"
         cx="563.60278"
         cy="208.60028"
         rx="2.33377"
         ry="0.56576258" />
      <ellipse
         id="path6265-577"
         style="fill:#ffffff;fill-opacity:1;fill-rule:evenodd;stroke:none"
         cx="572.79645"
         cy="208.45885"
         rx="2.33377"
         ry="0.56576258" />
      <ellipse
         id="path6265-27"
         style="fill:#ffffff;fill-opacity:1;fill-rule:evenodd;stroke:none"
         cx="582.27295"
         cy="206.903"
         rx="2.33377"
         ry="0.56576258" />
      <ellipse
         id="path6265-4"
         style="fill:#ffffff;fill-opacity:1;fill-rule:evenodd;stroke:none"
         cx="589.34497"
         cy="206.1958"
         rx="2.33377"
         ry="0.56576258" />
      <ellipse
         id="path6265-175"
         style="fill:#ffffff;fill-opacity:1;fill-rule:evenodd;stroke:none"
         cx="596.55847"
         cy="204.78139"
         rx="2.33377"
         ry="0.56576258" />
      <ellipse
         id="path6265-96"
         style="fill:#ffffff;fill-opacity:1;fill-rule:evenodd;stroke:none"
         cx="499.1059"
         cy="207.04443"
         rx="2.33377"
         ry="0.56576258" />
      <ellipse
         id="path6265-07"
         style="fill:#ffffff;fill-opacity:1;fill-rule:evenodd;stroke:none"
         cx="504.76352"
         cy="207.75165"
         rx="2.33377"
         ry="0.56576258" />
      <ellipse
         id="path6265-43"
         style="fill:#ffffff;fill-opacity:1;fill-rule:evenodd;stroke:none"
         cx="512.11841"
         cy="208.3174"
         rx="2.33377"
         ry="0.56576258" />
      <ellipse
         id="path6265-146"
         style="fill:#ffffff;fill-opacity:1;fill-rule:evenodd;stroke:none"
         cx="518.90759"
         cy="209.73181"
         rx="2.33377"
         ry="0.56576258" />
      <ellipse
         id="path6265-67"
         style="fill:#ffffff;fill-opacity:1;fill-rule:evenodd;stroke:none"
         cx="526.96967"
         cy="209.44893"
         rx="2.33377"
         ry="0.56576258" />
      <ellipse
         id="path6265-776"
         style="fill:#ffffff;fill-opacity:1;fill-rule:evenodd;stroke:none"
         cx="534.32458"
         cy="208.74173"
         rx="2.33377"
         ry="0.56576258" />
      <ellipse
         id="path6265-04"
         style="fill:#ffffff;fill-opacity:1;fill-rule:evenodd;stroke:none"
         cx="542.66962"
         cy="207.46877"
         rx="2.33377"
         ry="0.56576258" />
      <ellipse
         id="path6265-90"
         style="fill:#ffffff;fill-opacity:1;fill-rule:evenodd;stroke:none"
         cx="550.02448"
         cy="206.903"
         rx="2.33377"
         ry="0.56576258" />
      <ellipse
         id="path6265-46"
         style="fill:#ffffff;fill-opacity:1;fill-rule:evenodd;stroke:none"
         cx="557.09656"
         cy="206.05435"
         rx="2.33377"
         ry="0.56576258" />
      <ellipse
         id="path6265-94"
         style="fill:#ffffff;fill-opacity:1;fill-rule:evenodd;stroke:none"
         cx="564.16858"
         cy="204.35707"
         rx="2.33377"
         ry="0.56576258" />
      <ellipse
         id="path6265-37"
         style="fill:#ffffff;fill-opacity:1;fill-rule:evenodd;stroke:none"
         cx="571.2406"
         cy="204.63995"
         rx="2.33377"
         ry="0.56576258" />
      <ellipse
         id="path6265-35"
         style="fill:#ffffff;fill-opacity:1;fill-rule:evenodd;stroke:none"
         cx="579.30273"
         cy="203.22554"
         rx="2.33377"
         ry="0.56576258" />
      <ellipse
         id="path6265-48"
         style="fill:#ffffff;fill-opacity:1;fill-rule:evenodd;stroke:none"
         cx="514.80579"
         cy="205.34715"
         rx="2.33377"
         ry="0.56576258" />
      <ellipse
         id="path6265-64"
         style="fill:#ffffff;fill-opacity:1;fill-rule:evenodd;stroke:none"
         cx="521.02917"
         cy="206.76155"
         rx="2.33377"
         ry="0.56576258" />
      <ellipse
         id="path6265-58"
         style="fill:#ffffff;fill-opacity:1;fill-rule:evenodd;stroke:none"
         cx="527.95978"
         cy="204.92284"
         rx="2.33377"
         ry="0.56576258" />
      <ellipse
         id="path6265-25"
         style="fill:#ffffff;fill-opacity:1;fill-rule:evenodd;stroke:none"
         cx="535.73901"
         cy="205.34715"
         rx="2.33377"
         ry="0.56576258" />
      <ellipse
         id="path6265-560"
         style="fill:#ffffff;fill-opacity:1;fill-rule:evenodd;stroke:none"
         cx="544.7912"
         cy="203.64987"
         rx="2.33377"
         ry="0.56576258" />
      <ellipse
         id="path6265-63"
         style="fill:#ffffff;fill-opacity:1;fill-rule:evenodd;stroke:none"
         cx="553.70197"
         cy="203.08411"
         rx="2.33377"
         ry="0.56576258" />
    </g>
  </g>
</svg>
