<?xml version="1.0" encoding="UTF-8" standalone="no"?>
<!-- Created with Fritzing (http://www.fritzing.org/) -->

<svg
   xmlns:dc="http://purl.org/dc/elements/1.1/"
   xmlns:cc="http://creativecommons.org/ns#"
   xmlns:rdf="http://www.w3.org/1999/02/22-rdf-syntax-ns#"
   xmlns:svg="http://www.w3.org/2000/svg"
   xmlns="http://www.w3.org/2000/svg"
   xmlns:sodipodi="http://sodipodi.sourceforge.net/DTD/sodipodi-0.dtd"
   xmlns:inkscape="http://www.inkscape.org/namespaces/inkscape"
   version="1.2"
   x="0in"
   y="0in"
   width="175.8448"
   height="656.966"
   viewBox="0 0 140.67548 525.57319"
   id="svg23910"
   inkscape:version="0.91 r13725"
   sodipodi:docname="led.svg">
  <metadata
     id="metadata23945">
    <rdf:RDF>
      <cc:Work
         rdf:about="">
        <dc:format>image/svg+xml</dc:format>
        <dc:type
           rdf:resource="http://purl.org/dc/dcmitype/StillImage" />
        <dc:title />
      </cc:Work>
    </rdf:RDF>
  </metadata>
  <defs
     id="defs23943" />
  <sodipodi:namedview
     pagecolor="#ffffff"
     bordercolor="#666666"
     borderopacity="1"
     objecttolerance="10"
     gridtolerance="10"
     guidetolerance="10"
     inkscape:pageopacity="0"
     inkscape:pageshadow="2"
     inkscape:window-width="3840"
     inkscape:window-height="2031"
     id="namedview23941"
     showgrid="true"
     fit-margin-top="2"
     fit-margin-left="2"
     fit-margin-right="2"
     fit-margin-bottom="2"
     inkscape:zoom="6.8781401"
     inkscape:cx="155.49788"
     inkscape:cy="78.814031"
     inkscape:window-x="0"
     inkscape:window-y="55"
     inkscape:window-maximized="1"
     inkscape:current-layer="g24533"
     units="px"
     inkscape:snap-bbox="true"
     inkscape:snap-bbox-midpoints="true"
     inkscape:snap-bbox-edge-midpoints="true"
     inkscape:bbox-paths="true"
     inkscape:bbox-nodes="true">
    <inkscape:grid
       type="xygrid"
       id="grid24589"
       spacingx="7.9999791"
       spacingy="8.0000059"
       originx="-0.00089581582"
       originy="-7.1969914e-05" />
  </sodipodi:namedview>
  <g
     id="g24533"
     transform="matrix(0.47385758,0,0,0.47385758,0.84086376,0.84180554)">
    <path
       sodipodi:nodetypes="cc"
       style="fill:none;stroke:#8c8c8c;stroke-width:40.38203049;stroke-linecap:round;stroke-linejoin:round"
       inkscape:connector-curvature="0"
       id="path23912"
       d="m 221.75413,549.82523 0,412.55851" />
    <path
       sodipodi:nodetypes="cc"
       style="fill:none;stroke:#8c8c8c;stroke-width:40.38203049;stroke-linecap:round;stroke-linejoin:round"
       inkscape:connector-curvature="0"
       id="path23914"
       d="m 86.566219,549.82523 0,212.48718" />
    <g
       transform="matrix(18.770466,0,0,18.770466,1.5990489,1.6000497)"
       id="g23916"
       partID="57410">
      <g
         id="breadboard">
        <rect
           style="fill:none"
           width="2.1520801"
           height="0.72000003"
           id="connector0pin"
           y="25.421"
           x="3.4509599" />
        <rect
           style="fill:none"
           width="2.1542399"
           height="0.72000003"
           id="connector1pin"
           y="25.421"
           x="10.651" />
        <g
           style="fill:none;stroke:#8c8c8c;stroke-width:2.15136003;stroke-linecap:round"
           y1="40.565"
           y2="74.754"
           x2="6.287"
           id="connector0leg"
           x1="6.287" />
        <g
           style="fill:none;stroke:#8c8c8c;stroke-width:2.15136003;stroke-linecap:round"
           y1="40.565"
           y2="74.754"
           x2="16.29"
           id="connector1leg"
           x1="16.29" />
        <rect
           style="fill:#8c8c8c"
           id="rect23923"
           width="2.15136"
           height="9.82728"
           y="19.379499"
           x="3.4509599" />
        <path
           style="fill:#8c8c8c"
           inkscape:connector-curvature="0"
           id="path23925"
           d="m 12.8045,29.2068 c 0,-1.1736 -1.06488,-2.1024 -2.088,-2.9916 C 10.30034,25.848 9.51698,25.21368 9.51698,24.79032 l 0,-5.47056 -2.16144,0 0,5.78016 c 0,1.0584 0.94752,1.87848 1.94616,2.74824 0.44424,0.37584 1.34856,1.24992 1.34856,1.76976" />
        <g
           id="g12">
          <path
             style="opacity:0.3;fill:#e60000"
             inkscape:connector-curvature="0"
             d="m 14.1732,13.001 0,-5.9126 C 14.1732,3.1752 11.0052,0 7.08768,0 3.1752,0 0,3.16944 0,7.0884 l 0,13.649 c 1.47384,1.65096 4.0968,2.75256 7.08768,2.75256 4.61952,0 8.36856,-2.61792 8.36856,-5.85936 l 0,-1.52352 C 15.4555,14.9645 14.9818,13.9032 14.1732,13.001 Z"
             id="color_path14" />
          <path
             style="opacity:0.5;fill:#e6e6e6"
             inkscape:connector-curvature="0"
             d="m 14.1732,13.001 0,-5.9126 C 14.1732,3.1752 11.0052,0 7.08768,0 3.1752,0 0,3.16944 0,7.0884 l 0,13.649 c 1.47384,1.65096 4.0968,2.75256 7.08768,2.75256 4.61952,0 8.36856,-2.61792 8.36856,-5.85936 l 0,-1.52352 C 15.4555,14.9645 14.9818,13.9032 14.1732,13.001 Z"
             id="path16" />
          <path
             style="opacity:0.9;fill:#d1d1d1"
             inkscape:connector-curvature="0"
             d="m 14.1732,13.001 0,3.10536 c 0,2.73888 -3.16584,4.96512 -7.08552,4.96512 C 3.1752,21.0715 0,18.8525 0,16.1064 l 0,3.10536 0,1.52424 c 1.47384,1.65168 4.0968,2.75256 7.08768,2.75256 4.61952,0 8.36856,-2.61792 8.36856,-5.85864 l -4e-5,-1.52352 c -7e-4,-1.1419 -0.4744,-2.2032 -1.283,-3.1054 z"
             id="path18" />
          <path
             style="opacity:0.7;fill:#e60000"
             inkscape:connector-curvature="0"
             d="m 14.1732,13.001 0,3.10536 c 0,2.73888 -3.16584,4.96512 -7.08552,4.96512 C 3.1752,21.0715 0,18.8525 0,16.1064 l 0,3.10536 0,1.52424 c 1.47384,1.65168 4.0968,2.75256 7.08768,2.75256 4.61952,0 8.36856,-2.61792 8.36856,-5.85864 l -4e-5,-1.52352 c -7e-4,-1.1419 -0.4744,-2.2032 -1.283,-3.1054 z"
             id="color_path20" />
          <path
             style="opacity:0.25;fill:#e60000"
             inkscape:connector-curvature="0"
             d="m 14.1732,13.001 0,3.10536 c 0,2.73888 -3.16584,4.96512 -7.08552,4.96512 C 3.1752,21.0715 0,18.8525 0,16.1064 l 0,3.10536 c 1.47384,1.65024 4.0968,2.75256 7.08768,2.75256 4.61952,0 8.36856,-2.61792 8.36856,-5.85864 C 15.4555,14.9645 14.9818,13.9032 14.1732,13.001 Z"
             id="color_path22" />
          <ellipse
             style="opacity:0.25;fill:#e6e6e6"
             cy="16.1064"
             cx="7.0876799"
             rx="7.0869598"
             id="ellipse24"
             ry="4.9608002" />
          <ellipse
             style="opacity:0.25;fill:#e60000"
             cy="16.1064"
             cx="7.0876799"
             rx="7.0869598"
             id="color_ellipse26"
             ry="4.9608002" />
          <polygon
             style="fill:#666666"
             id="polygon28"
             points="3.19608,13.0946 6.0156,13.0946 10.0123,8.80488 3.40704,8.80488 2.2032,9.648 2.2032,16.1071 3.19608,16.1071 " />
          <polygon
             style="fill:#666666"
             id="polygon30"
             points="11.0599,13.0946 11.0599,16.1071 11.9736,16.1071 11.9736,8.52408 10.7784,8.52408 11.2147,9.03384 7.41168,13.0946 " />
          <path
             style="opacity:0.65;fill:#e60000"
             inkscape:connector-curvature="0"
             d="m 14.1732,13.001 0,-5.9126 C 14.1732,3.1752 11.0052,0 7.08768,0 3.1752,0 0,3.16944 0,7.0884 l 0,13.649 c 1.47384,1.65096 4.0968,2.75256 7.08768,2.75256 4.61952,0 8.36856,-2.61792 8.36856,-5.85936 l 0,-1.52352 C 15.4555,14.9645 14.9818,13.9032 14.1732,13.001 Z"
             id="color_path32" />
          <path
             style="opacity:0.5;fill:#ffffff"
             inkscape:connector-curvature="0"
             d="m 10.3882,3.75408 1.4364,-0.2736 C 10.98292,2.34864 9.74236,1.5228 8.28292,1.242 L 8.53708,2.32272 C 9.30096,2.59344 9.94392,3.1032 10.3882,3.75408 Z"
             id="path34" />
          <path
             style="opacity:0.5;fill:#ffffff"
             inkscape:connector-curvature="0"
             d="m 0.76824,19.926 0,1.51992 c 0.64872,0.5292 1.43352,0.97632 2.3076,1.31688 l 0,-1.52496 C 2.19744,20.9016 1.41912,20.4559 0.76824,19.926 Z"
             id="path36" />
          <path
             style="opacity:0.5;fill:#ffffff"
             inkscape:connector-curvature="0"
             d="m 11.0729,20.2097 c -0.2556,0.1224 -0.52992,0.22968 -0.80568,0.32976 -0.05832,0.01944 -0.11736,0.04032 -0.17784,0.05832 -0.56376,0.17928 -1.16136,0.31896 -1.79496,0.39456 -0.07488,0.0094 -0.1512,0.01872 -0.22464,0.01944 -0.3204,0.03024 -0.64368,0.05832 -0.97056,0.05832 -0.14832,0 -0.30744,-0.01512 -0.4716,-0.02376 C 5.42738,20.98946 4.29698,20.7317 3.33002,20.3069 L 3.33,11.9174 3.33,7.092 C 3.33,5.62104 4.17816,4.36248 5.4036,3.74256 L 5.38128,3.68928 4.13352,2.17728 c -1.66968,1.00296 -2.79,2.8224 -2.79,4.91184 l 0,11.9052 C 1.29384,18.94464 1.03536,18.68544 0.86328,18.4644 L 0.55584,19.152 c 1.40112,1.48176 3.8088,2.46168 6.54264,2.46168 1.67976,0 3.23712,-0.37368 4.51152,-1.00224 l -0.52704,-0.40896 c -0.01006,0.0072 -0.01006,0.0072 -0.01006,0.0072 z"
             id="path38" />
        </g>
      </g>
    </g>
    <path
       inkscape:connector-curvature="0"
       id="path24487"
       d="m 82.63668,741.31081 c -35.53455,0 -64.81677,29.34083 -64.81677,64.87544 0,35.53462 29.28222,64.81687 64.81677,64.81677 35.53462,0 64.81684,-29.28215 64.81684,-64.81677 0,-35.53461 -29.28222,-64.87544 -64.81684,-64.87544 z m -28.62495,58.74567 57.24997,0 0,12.20087 -57.24997,0 0,-12.20087 z"
       style="color:#000000;font-style:normal;font-variant:normal;font-weight:normal;font-stretch:normal;font-size:medium;line-height:normal;font-family:sans-serif;text-indent:0;text-align:start;text-decoration:none;text-decoration-line:none;text-decoration-style:solid;text-decoration-color:#000000;letter-spacing:normal;word-spacing:normal;text-transform:none;direction:ltr;block-progression:tb;writing-mode:lr-tb;baseline-shift:baseline;text-anchor:start;white-space:normal;clip-rule:nonzero;display:inline;overflow:visible;visibility:visible;opacity:1;isolation:auto;mix-blend-mode:normal;color-interpolation:sRGB;color-interpolation-filters:linearRGB;solid-color:#000000;solid-opacity:1;fill:#8c8c8c;fill-opacity:1;fill-rule:nonzero;stroke:none;stroke-width:2.40000176;stroke-linecap:round;stroke-linejoin:round;stroke-miterlimit:4;stroke-dasharray:none;stroke-dashoffset:0;stroke-opacity:1;color-rendering:auto;image-rendering:auto;shape-rendering:auto;text-rendering:auto;enable-background:accumulate" />
    <path
       inkscape:connector-curvature="0"
       id="path24487-1"
       d="m 220.41252,960.8155 c -35.53455,0 -64.87544,29.31145 -64.87544,64.846 0,35.5346 29.34089,64.8169 64.87544,64.8169 35.53462,0 64.81684,-29.2823 64.81684,-64.8169 0,-35.53455 -29.28222,-64.846 -64.81684,-64.846 z m -6.21771,25.72135 12.37682,0 0,33.02415 34.93067,0 0,12.0249 -35.10669,0 0,33.2003 -12.2008,0 0,-33.2003 -34.93068,0 0,-12.0249 34.93068,0 0,-33.02415 z"
       style="color:#000000;font-style:normal;font-variant:normal;font-weight:normal;font-stretch:normal;font-size:medium;line-height:normal;font-family:sans-serif;text-indent:0;text-align:start;text-decoration:none;text-decoration-line:none;text-decoration-style:solid;text-decoration-color:#000000;letter-spacing:normal;word-spacing:normal;text-transform:none;direction:ltr;block-progression:tb;writing-mode:lr-tb;baseline-shift:baseline;text-anchor:start;white-space:normal;clip-rule:nonzero;display:inline;overflow:visible;visibility:visible;opacity:1;isolation:auto;mix-blend-mode:normal;color-interpolation:sRGB;color-interpolation-filters:linearRGB;solid-color:#000000;solid-opacity:1;fill:#8c8c8c;fill-opacity:1;fill-rule:nonzero;stroke:none;stroke-width:2.40000153;stroke-linecap:round;stroke-linejoin:round;stroke-miterlimit:4;stroke-dasharray:none;stroke-dashoffset:0;stroke-opacity:1;color-rendering:auto;image-rendering:auto;shape-rendering:auto;text-rendering:auto;enable-background:accumulate" />
  </g>
</svg>
