<?xml version='1.0' encoding='UTF-8' standalone='no'?>
<!-- Created with Fritzing (http://www.fritzing.org/) -->
<svg xmlns:svg='http://www.w3.org/2000/svg' xmlns='http://www.w3.org/2000/svg' version='1.2' baseProfile='tiny' x='0in' y='0in' width='0.44444in' height='0.11111in' viewBox='0 0 31.9997 7.99992' >
<path stroke='#8c8c8c' stroke-width='2.90997' stroke-linecap='round' stroke-linejoin='round' fill='none' d='M29.7997,3.43896L30.1997,3.43896' />
<path stroke='#8c8c8c' stroke-width='2.90997' stroke-linecap='round' stroke-linejoin='round' fill='none' d='M1.85498,3.43896L1.45499,3.43896' />
<g partID='58140'><g transform='translate(3.6e-06,0)' ><g xmlns="http://www.w3.org/2000/svg" id="breadboard">
 <rect xmlns="http://www.w3.org/2000/svg" id="connector0pin" x="1.45498" fill="none" y="2.39198" height="0.719993" width="0.719993"/>
 <rect xmlns="http://www.w3.org/2000/svg" id="connector1pin" x="28.1647" fill="none" y="2.39198" height="0.719993" width="0.720994"/>
 <line xmlns="http://www.w3.org/2000/svg" id="connector0leg" x1="1.45498" fill="none" stroke-width="2.90997" y1="3.43896" stroke="#8C8C8C" y2="3.43896" x2="1.85498" stroke-linecap="round"/>
 <line xmlns="http://www.w3.org/2000/svg" id="connector1leg" x1="30.1997" fill="none" stroke-width="2.90997" y1="3.43896" stroke="#8C8C8C" y2="3.43896" x2="29.7997" stroke-linecap="round"/>
 <path xmlns="http://www.w3.org/2000/svg" fill="none" stroke-width="2.90997" stroke="#8C8C8C" d="M1.45498,3.43896l28.3157,0"/>
 <path xmlns="http://www.w3.org/2000/svg" id="body" fill="#7BC6B8" d="M10.6549,0.301997c-0.359996,-0.165998,-0.978991,-0.294997,-1.37498,-0.294997L7.29295,0.00699993c-0.395996,0,-0.719993,0.323996,-0.719993,0.719993l0,5.35594c0,0.395996,0.323996,0.719993,0.719993,0.719993L9.27994,6.80293c0.395996,0,1.01499,-0.135999,1.37498,-0.295997l0.0719993,-0.0349996c0.359996,-0.164998,0.978991,-0.294997,1.37498,-0.294997l7.18493,0c0.396996,0,1.01599,0.136999,1.37498,0.294997l0.0719993,0.0349996c0.360996,0.165998,0.978991,0.295997,1.37598,0.295997l1.98698,0c0.395996,0,0.719993,-0.322997,0.719993,-0.719993L24.8167,0.726991c0,-0.395996,-0.322997,-0.719993,-0.719993,-0.719993l-1.98698,0c-0.396996,0,-1.01499,0.136999,-1.37598,0.294997l-0.0719993,0.0359996c-0.358996,0.165998,-0.97799,0.294997,-1.37498,0.294997l-7.18493,0c-0.395996,0,-1.01499,-0.136999,-1.37498,-0.294997L10.6549,0.301997z"/>
 <rect xmlns="http://www.w3.org/2000/svg" id="gold_band" x="22.4258" fill="#ad9f4e" y="0" height="6.79593" width="0.702993"/>
 <rect xmlns="http://www.w3.org/2000/svg" id="band_3" x="15.1399" fill="#000000" y="0.632994" height="5.53694" width="1.85098"/>
 <rect xmlns="http://www.w3.org/2000/svg" id="band_2_nd" x="12.1599" fill="#8210d2" y="0.632994" height="5.53694" width="1.84998"/>
 <path xmlns="http://www.w3.org/2000/svg" id="band_rd_multiplier" fill="#c40808" d="M18.0038,0.635993c0,0,1.19699,0,1.39999,0s0.437995,-0.0629994,0.437995,-0.0629994l0,5.67194c0,0,-0.202998,-0.0649994,-0.437995,-0.0649994s-1.39999,-0.00699993,-1.39999,-0.00699993L18.0038,0.635993z"/>
 <path xmlns="http://www.w3.org/2000/svg" id="band_1_st" fill="#ffd500" d="M11.0359,0.445995c-0.114999,-0.0359996,-0.222998,-0.0719993,-0.309997,-0.114999l-0.0719993,-0.0359996C10.2949,0.129999,9.67594,0,9.27994,0L9.19289,0l0,6.79593L9.27994,6.79593c0.395996,0,1.01499,-0.136999,1.37498,-0.294997l0.0719993,-0.0359996c0.085999,-0.0439996,0.194998,-0.0789991,0.309997,-0.114999L11.0369,0.445995z"/>
 <path xmlns="http://www.w3.org/2000/svg" id="Shadow" fill-opacity="0.4" fill="#000000" d="M24.1188,3.89596L24.1188,3.89596c0,0.379997,-0.129999,0.698993,-0.294997,0.698993l-1.92298,0c-0.379997,0,-0.97799,-0.0559994,-1.33199,-0.121999l-0.0729994,-0.0159998c-0.344997,-0.0649994,-0.947988,-0.121999,-1.33299,-0.121999l-6.94693,0c-0.381996,0,-0.978991,0.0569994,-1.33199,0.121999l-0.0719993,0.0149998c-0.344997,0.0659994,-0.942991,0.122999,-1.33199,0.122999L9.16294,4.59495L8.16192,4.59495l-0.309997,0c-0.381996,0,-0.697993,0.292997,-0.697993,0.644993l0,0.246997l0,0.158998l0,0.172998c0,0.359996,0.315996,0.645993,0.697993,0.645993l1.61999,0c0.380996,0,0.978991,-0.122999,1.33199,-0.267998l0.0719993,-0.0269997c0.345997,-0.141998,0.95099,-0.265998,1.33199,-0.265998l6.94593,0c0.379997,0,0.97799,0.123998,1.33399,0.265998l0.0739994,0.0279997c0.345997,0.144999,0.944993,0.266998,1.33399,0.266998l2.22498,0c0.380996,0,0.698993,-0.294997,0.698993,-0.644993L24.8198,5.27895L24.8198,4.30596L24.8198,2.46198C24.5428,2.56998,24.1188,2.87297,24.1188,3.89596z"/>
 <rect xmlns="http://www.w3.org/2000/svg" id="ShadowExtra" x="22.4258" y="3.28997" height="3.15297" width="0.702993"/>
 <path xmlns="http://www.w3.org/2000/svg" id="ReflexRight" fill="#FFFFFF" d="M20.1588,0.892994c0.229998,0,0.490995,-0.100999,0.661993,-0.172998c0.201998,-0.0789991,0.576994,-0.143999,0.966989,-0.143999l1.46099,0c0.224998,0,0.224998,0.244997,0.224998,0.374996c0,0.129999,-0.0159998,0.381996,-0.224998,0.381996l-3.06097,0c-0.106999,0,-0.229998,-0.114999,-0.229998,-0.223998C19.9638,1.02199,20.0358,0.892994,20.1588,0.892994z"/>
 <circle xmlns="http://www.w3.org/2000/svg" id="ReflexLeft" cy="0.942991" fill="#FFFFFF" cx="7.40794" r="0.431996"/>
 <rect xmlns="http://www.w3.org/2000/svg" id="Reflex_gold" x="22.4258" fill="#FFFF33" y="0.229998" height="1.61999" width="0.702993"/>
 <rect xmlns="http://www.w3.org/2000/svg" id="Reflex_extra" x="22.4258" fill="#FFFFFF" y="0.589994" height="0.748994" width="0.702993"/>
</g>
</g></g></svg>